<svg width="62" height="68" viewBox="0 0 62 68" fill="none" xmlns="http://www.w3.org/2000/svg">
<g filter="url(#filter0_dd_189_27093)">
<path d="M52 27C52 15.402 42.598 6 31 6C19.402 6 10 15.402 10 27C10 36.7167 16.5992 44.8921 25.5602 47.2886C26.2829 47.4819 26.9186 47.9308 27.2926 48.5786L29.8633 53.0312C30.3685 53.9062 31.6315 53.9062 32.1367 53.0312L34.7074 48.5787C35.0814 47.9308 35.7171 47.4819 36.4397 47.2886C45.4008 44.8921 52 36.7167 52 27Z" fill="#303033"></path>
<path d="M31 6.5C42.3218 6.5 51.5 15.6782 51.5 27C51.5 36.4847 45.0584 44.4661 36.3105 46.8057C35.4746 47.0292 34.7221 47.5536 34.2744 48.3291L31.7041 52.7812C31.3914 53.3229 30.6086 53.3229 30.2959 52.7812L27.7256 48.3291C27.2779 47.5536 26.5254 47.0292 25.6895 46.8057C16.9416 44.4661 10.5 36.4846 10.5 27C10.5 15.6782 19.6782 6.5 31 6.5Z" stroke="#E1E2ED"></path>
</g>
<path fill-rule="evenodd" clip-rule="evenodd" d="M39 20.5H36V18.5C36 17.4 35.1 16.5 34 16.5H28C26.9 16.5 26 17.4 26 18.5V20.5H23C21.9 20.5 21 21.4 21 22.5V34.5C21 35.6 21.9 36.5 23 36.5H39C40.1 36.5 41 35.6 41 34.5V22.5C41 21.4 40.1 20.5 39 20.5ZM28 18.5H34V20.5H28V18.5ZM38.02 22.5L34.94 27.5H27.06L23.98 22.5H38.02ZM39 34.5H23V24.72L25.36 28.55C25.72 29.14 26.37 29.5 27.06 29.5H34.94C35.63 29.5 36.28 29.14 36.64 28.55L39 24.72V34.5Z" fill="#F2F0F0"></path>
<defs>
<filter id="filter0_dd_189_27093" x="0" y="0" width="62" height="67.6875" filterUnits="userSpaceOnUse" color-interpolation-filters="sRGB">
<feFlood flood-opacity="0" result="BackgroundImageFix"></feFlood>
<feColorMatrix in="SourceAlpha" type="matrix" values="0 0 0 0 0 0 0 0 0 0 0 0 0 0 0 0 0 0 127 0" result="hardAlpha"></feColorMatrix>
<feOffset dy="4"></feOffset>
<feGaussianBlur stdDeviation="5"></feGaussianBlur>
<feColorMatrix type="matrix" values="0 0 0 0 0 0 0 0 0 0 0 0 0 0 0 0 0 0 0.12 0"></feColorMatrix>
<feBlend mode="normal" in2="BackgroundImageFix" result="effect1_dropShadow_189_27093"></feBlend>
<feColorMatrix in="SourceAlpha" type="matrix" values="0 0 0 0 0 0 0 0 0 0 0 0 0 0 0 0 0 0 127 0" result="hardAlpha"></feColorMatrix>
<feOffset dy="4"></feOffset>
<feGaussianBlur stdDeviation="2.5"></feGaussianBlur>
<feColorMatrix type="matrix" values="0 0 0 0 0 0 0 0 0 0 0 0 0 0 0 0 0 0 0.14 0"></feColorMatrix>
<feBlend mode="normal" in2="effect1_dropShadow_189_27093" result="effect2_dropShadow_189_27093"></feBlend>
<feBlend mode="normal" in="SourceGraphic" in2="effect2_dropShadow_189_27093" result="shape"></feBlend>
</filter>
</defs>
</svg>