<svg width="24" height="24" viewBox="0 0 24 24" fill="none" xmlns="http://www.w3.org/2000/svg">
<path fill-rule="evenodd" clip-rule="evenodd" d="M18.6683 7.87C19.2286 7.25 19.5788 6.43 19.5788 5.53C19.5788 3.58 17.968 2 15.977 2C13.986 2 12.3752 3.58 12.3752 5.53C12.3752 6.42 12.7154 7.23 13.2656 7.85C12.7354 8.11 12.3152 8.43 11.985 8.74C11.6548 8.44 11.2446 8.12 10.7244 7.86C11.2846 7.24 11.6248 6.42 11.6248 5.53C11.6248 3.58 10.014 2 8.02301 2C6.03202 2 4.42121 3.58 4.42121 5.53C4.42121 6.42 4.76138 7.24 5.32166 7.86C3.25063 8.88 2 11.02 2 13.15C2 13.69 2.45023 14.13 3.0005 14.13H8.49325C8.6033 14.75 8.87344 15.31 9.26363 15.77C7.24262 16.8 6.01201 18.92 6.01201 21.02C6.01201 21.56 6.46223 22 7.01251 22H17.0675C17.6178 22 18.078 21.56 18.028 21.02C17.7779 18.11 16.4172 16.52 14.8464 15.74C15.2266 15.28 15.4867 14.73 15.5968 14.13H20.9995C21.5498 14.13 22 13.69 22 13.15C22 11.03 20.7494 8.9 18.6883 7.87H18.6683ZM15.967 3.97C16.8474 3.97 17.5578 4.67 17.5578 5.53C17.5578 6.39 16.8474 7.09 15.967 7.09C15.0865 7.09 14.3662 6.39 14.3662 5.53C14.3662 4.67 15.0765 3.97 15.967 3.97ZM12.015 11.96C12.8954 11.96 13.6058 12.66 13.6058 13.52C13.6058 14.38 12.8954 15.08 12.015 15.08C11.1346 15.08 10.4242 14.38 10.4242 13.52C10.4242 12.66 11.1346 11.96 12.015 11.96ZM7.993 3.97C8.87344 3.97 9.58379 4.67 9.58379 5.53C9.58379 6.39 8.87344 7.09 7.993 7.09C7.11256 7.09 6.4022 6.39 6.4022 5.53C6.4022 4.67 7.11256 3.97 7.993 3.97ZM8.66333 12.22L4.11106 12.16C4.54127 10.56 6.002 9.21 8.003 9.21C9.24362 9.21 10.2741 9.73 10.8344 10.19C9.84392 10.53 9.05353 11.27 8.67334 12.22H8.66333ZM15.8369 20.1L8.12306 20.04C8.55328 18.44 10.014 17.09 12.015 17.09C13.4757 17.09 15.3367 18.07 15.8369 20.11V20.1ZM15.3667 12.22C14.9765 11.25 14.1561 10.49 13.1356 10.17C13.7059 9.72 14.7164 9.21 15.937 9.21C17.928 9.21 19.3887 10.56 19.8289 12.16L15.3667 12.22Z" fill="#46464A"></path>
</svg>