<svg width="24" height="24" viewBox="0 0 24 24" fill="none" xmlns="http://www.w3.org/2000/svg">
<path d="M12 8C12.5523 8 13 8.44772 13 9V12H15C15.5523 12 16 12.4477 16 13C16 13.5523 15.5523 14 15 14H12.5C11.6716 14 11 13.3284 11 12.5V9C11 8.44772 11.4477 8 12 8Z" fill="#46464A"></path>
<path fill-rule="evenodd" clip-rule="evenodd" d="M2 8.00001C2 8.55229 2.44772 9.00001 3 9.00001L7 9.00001C7.55228 9.00001 7.99999 8.55229 7.99999 8.00001C7.99999 7.44772 7.55228 7.00001 6.99999 7.00001L5.75464 7C7.22076 5.17107 9.47363 4 12 4C15.7277 4 18.8599 6.54955 19.748 10C19.9124 10.639 20 11.3096 20 12C20 12.1162 19.9975 12.2318 19.9926 12.3468C19.9191 14.0715 19.2995 15.6548 18.3023 16.9282C17.9 17.4419 17.4362 17.9053 16.922 18.3071C15.5647 19.3678 13.8562 20 12 20C10.1463 20 8.43994 19.3696 7.08349 18.3114C6.56947 17.9104 6.1057 17.448 5.70321 16.9352C4.82991 15.8225 4.24516 14.4725 4.06166 12.998C3.99346 12.45 3.5523 12 3.00002 12C2.44774 12 1.99477 12.449 2.04926 12.9986C2.55033 18.0526 6.81419 22 12 22C17.5229 22 22 17.5228 22 12C22 6.47715 17.5229 2 12 2C8.7288 2 5.82445 3.5707 4 5.99905V4.00001C4 3.44772 3.55228 3.00001 3 3.00001C2.44772 3.00001 2 3.44772 2 4.00001V8.00001Z" fill="#46464A"></path>
</svg>