<svg width="24" height="24" viewBox="0 0 24 24" fill="none" xmlns="http://www.w3.org/2000/svg">
<path fill-rule="evenodd" clip-rule="evenodd" d="M17.5 12C19.9853 12 22 9.98528 22 7.5C22 5.01472 19.9853 3 17.5 3C15.5407 3 13.8738 4.25221 13.2561 6H3C2.44772 6 2 6.44772 2 7C2 7.55228 2.44772 8 3 8H13.0275C13.2762 10.25 15.1837 12 17.5 12ZM20 7.5C20 6.11929 18.8807 5 17.5 5C16.1193 5 15 6.11929 15 7.5C15 8.88071 16.1193 10 17.5 10C18.8807 10 20 8.88071 20 7.5Z" fill="currentColor"></path>
<path fill-rule="evenodd" clip-rule="evenodd" d="M21 17C21.5523 17 22 16.5523 22 16C22 15.4477 21.5523 15 21 15H10.7439C10.1262 13.2522 8.45933 12 6.5 12C4.01472 12 2 14.0147 2 16.5C2 18.9853 4.01472 21 6.5 21C8.81628 21 10.7238 19.25 10.9725 17H21ZM6.5 14C7.88071 14 9 15.1193 9 16.5C9 17.8807 7.88071 19 6.5 19C5.11929 19 4 17.8807 4 16.5C4 15.1193 5.11929 14 6.5 14Z" fill="currentColor"></path>
</svg>