<svg viewBox="0 0 24 24" fill="none" xmlns="http://www.w3.org/2000/svg">
<path fill-rule="evenodd" clip-rule="evenodd" d="M9.98193 3.16843C10.8532 1.61052 13.1468 1.61053 14.0181 3.16843L22.7161 18.6844C23.5516 20.1784 22.4429 22 20.698 22H3.30201C1.55711 22 0.448389 20.1784 1.28394 18.6844L9.98193 3.16843ZM2.94621 19.9443L12.0019 3.7317L21.213 20.0494L2.94621 19.9443Z" fill="currentColor"></path>
<path d="M12 9C11.4477 9 11 9.44772 11 10V14C11 14.5523 11.4477 15 12 15C12.5523 15 13 14.5523 13 14V10C13 9.44772 12.5523 9 12 9Z" fill="currentColor"></path>
<path d="M12 16C11.4477 16 11 16.4477 11 17C11 17.5523 11.4477 18 12 18C12.5523 18 13 17.5523 13 17C13 16.4477 12.5523 16 12 16Z" fill="currentColor"></path>
</svg>