<svg viewBox="0 0 24 24" fill="none" xmlns="http://www.w3.org/2000/svg">
<path d="M11.7523 18.7147C12.1417 18.329 12.1417 17.6998 11.7523 17.3141L7.39575 12.9993L18.9971 12.9993C19.5509 12.9993 19.9999 12.5515 19.9999 11.9993C19.9999 11.447 19.5509 10.9993 18.9971 10.9993H7.3518L11.7084 6.68431C12.0979 6.29863 12.0979 5.66937 11.7085 5.28369C11.3243 4.9032 10.7054 4.9032 10.3212 5.28367L4.29352 11.2537C3.97322 11.5709 3.91638 12.053 4.12299 12.4287C4.17162 12.5437 4.24307 12.6513 4.33734 12.7447L10.365 18.7147C10.7492 19.0952 11.3681 19.0952 11.7523 18.7147Z" fill="currentColor"></path>
</svg>