<svg viewBox="0 0 24 24" fill="none" xmlns="http://www.w3.org/2000/svg">
<path fill-rule="evenodd" clip-rule="evenodd" d="M9 9.22081L10.4106 10.7016C10.778 11.0873 11.3693 11.0826 11.7314 10.6911C12.0934 10.2996 12.089 9.6696 11.7215 9.28389L9.00228 6.42936C8.45881 5.85885 7.5868 5.8566 7.04075 6.4243L4.2817 9.29268C3.91253 9.67649 3.90527 10.3065 4.26548 10.6998C4.6257 11.0932 5.21699 11.1009 5.58616 10.7171L7 9.24727V15.0193C7 15.5609 7.44772 16 8 16C8.55229 16 9 15.5609 9 15.0193V9.22081Z" fill="currentColor"></path>
<path fill-rule="evenodd" clip-rule="evenodd" d="M15 14.7792L13.5894 13.2984C13.222 12.9127 12.6306 12.9174 12.2686 13.3089C11.9066 13.7004 11.911 14.3304 12.2785 14.7161L14.9977 17.5706C15.5412 18.1411 16.4132 18.1434 16.9593 17.5757L19.7183 14.7073C20.0875 14.3235 20.0947 13.6935 19.7345 13.3002C19.3743 12.9068 18.783 12.8991 18.4138 13.2829L17 14.7527L17 8.98074C17 8.43909 16.5523 8 16 8C15.4477 8 15 8.43909 15 8.98074L15 14.7792Z" fill="currentColor"></path>
</svg>