<svg viewBox="0 0 24 24" fill="none" xmlns="http://www.w3.org/2000/svg">
<path fill-rule="evenodd" clip-rule="evenodd" d="M17 7C17 4.23858 14.7614 2 12 2C9.23858 2 7 4.23858 7 7L6.57998 7C5.54491 7 4.66972 7.74206 4.53292 8.73567L3.01846 19.7357C2.85339 20.9346 3.81652 22 5.06552 22H18.9345C20.1835 22 21.1466 20.9346 20.9815 19.7357L19.4671 8.73567C19.3303 7.74206 18.4551 7 17.42 7H17ZM16.0004 9H17.42L18.9345 20L5.06552 20L6.57998 9H7.99908C7.99877 9 7.99939 9 7.99908 9C7.99939 9 8.00061 9 8.00092 9L16.0004 9ZM9 7C9 5.34315 10.3431 4 12 4C13.6569 4 15 5.34315 15 7L9 7Z" fill="currentColor"></path>
</svg>