<svg viewBox="0 0 24 24" fill="none" xmlns="http://www.w3.org/2000/svg">
<path fill-rule="evenodd" clip-rule="evenodd" d="M12.0255 2C8.08918 2 4.90526 5.18071 4.93036 9.08795L4.9452 11.3976C4.95356 12.699 4.68779 13.9878 4.16493 15.1812L3.15415 17.0171C2.57919 18.3294 3.69502 20.0205 5.13673 20.0205H9.1719C9.58228 21.1742 10.6819 22 11.9739 22C13.2659 22 14.3655 21.1742 14.7759 20.0205H19.0149C20.476 20.0205 21.4233 18.3802 20.8107 17.0635L19.9645 15.2446C19.3906 14.0109 19.0976 12.6668 19.1063 11.3079L19.1206 9.08795C19.1457 5.18072 15.9617 2 12.0255 2ZM5.13681 18.0182L6.00056 15.9737C6.63468 14.5263 6.95701 12.9633 6.94687 11.3849L6.93203 9.07527C6.91401 6.27039 9.19964 3.98706 12.0254 3.98706C12.2199 3.98706 12.4119 3.99789 12.6008 4.01896C15.155 4.30392 17.1356 6.4635 17.1188 9.07528L17.1045 11.2952C17.0939 12.9461 17.4499 14.5789 18.1472 16.0777L19.0149 18.0182H5.13681Z" fill="currentColor"></path>
</svg>