<svg width="24" height="24" viewBox="0 0 24 24" fill="none" xmlns="http://www.w3.org/2000/svg">
<path fill-rule="evenodd" clip-rule="evenodd" d="M12.3624 2.64514C12.538 2.38824 12.7915 2.19325 13.0864 2.08835C14.1735 1.70152 15.2684 2.64413 15.0327 3.76405L14.9391 4.20894L13.6472 9.30683L18.0221 9.30693C18.8402 9.30694 19.2953 10.2494 18.7846 10.8861L10.1195 21.5771C9.79853 21.9773 9.24664 22.111 8.77697 21.9023C8.29777 21.6894 8.02885 21.1758 8.12783 20.6625L9.25868 14.7976H5.94733C5.16664 14.7976 4.73885 13.8067 5.17355 13.1607L12.3624 2.64514ZM12.6326 5.63951L7.58802 12.9999H11.653L10.4428 18.3929L16.0769 11.1045L11.1633 11.1045L12.6326 5.63951Z" fill="currentColor"></path>
</svg>