<svg viewBox="0 0 24 24" fill="none" xmlns="http://www.w3.org/2000/svg">
<path fill-rule="evenodd" clip-rule="evenodd" d="M17.6824 18.9433C17.4389 18.5209 17.5318 17.9901 17.8615 17.631C19.1885 16.1858 20 14.2492 20 12.1207C20 7.64911 16.4183 4.02415 12 4.02415C7.58172 4.02415 4 7.64911 4 12.1207C4 14.2314 4.79797 16.1534 6.10523 17.5946C6.4343 17.9574 6.5229 18.4919 6.27315 18.9132C5.95133 19.456 5.21668 19.5839 4.78253 19.1259C3.05911 17.3076 2 14.8393 2 12.1207C2 6.53121 6.47715 2 12 2C17.5228 2 22 6.53121 22 12.1207C22 14.8617 20.9234 17.3481 19.1749 19.1706C18.736 19.628 17.9988 19.4924 17.6824 18.9433ZM15.5878 14.7612C15.379 14.3936 15.4189 13.9431 15.6057 13.5638C15.8584 13.0507 16 12.4753 16 11.8676C16 9.70654 14.2091 7.95465 12 7.95465C9.79086 7.95465 8 9.70654 8 11.8676C8 12.4867 8.14696 13.0722 8.40862 13.5925C8.60179 13.9767 8.64239 14.4363 8.42551 14.8076C8.07456 15.4083 7.24492 15.5136 6.87633 14.9234C6.32038 14.0333 6 12.9871 6 11.8676C6 8.62601 8.68629 5.99818 12 5.99818C15.3137 5.99818 18 8.62601 18 11.8676C18 12.9703 17.6892 14.002 17.1485 14.8833C16.7793 15.4852 15.9364 15.3751 15.5878 14.7612ZM13.135 13.6416C13.6575 13.281 13.9999 12.6782 13.9999 11.9954C13.9999 10.8914 13.1045 9.99635 11.9999 9.99635C10.8954 9.99635 9.99994 10.8914 9.99994 11.9954C9.99994 12.6932 10.3576 13.3075 10.8997 13.6651L7.34044 20.7216C7.09044 21.2173 7.38782 21.8082 7.87613 21.9561C8.36443 22.1041 8.80576 21.8697 9.05576 21.374L9.75182 19.9918H14.2947L14.9908 21.374C15.2408 21.8697 15.6821 22.1041 16.1704 21.9561C16.6587 21.8082 16.9561 21.2173 16.7061 20.7216L13.1386 13.6487L13.135 13.6416ZM12.0233 15.4812L13.288 17.9927H10.7585L12.0233 15.4812Z" fill="currentColor"></path>
</svg>