<svg viewBox="0 0 24 24" fill="none" xmlns="http://www.w3.org/2000/svg">
<path d="M10 11C10.5523 11 11 11.4477 11 12V13C11 13.5523 10.5523 14 10 14H9C8.44772 14 8 13.5523 8 13V12C8 11.4477 8.44772 11 9 11H10Z" fill="currentColor"></path>
<path d="M15 11C15.5523 11 16 11.4477 16 12V13C16 13.5523 15.5523 14 15 14H14C13.4477 14 13 13.5523 13 13V12C13 11.4477 13.4477 11 14 11H15Z" fill="currentColor"></path>
<path d="M10 6C10.5523 6 11 6.44772 11 7V8C11 8.55228 10.5523 9 10 9H9C8.44772 9 8 8.55228 8 8V7C8 6.44772 8.44772 6 9 6H10Z" fill="currentColor"></path>
<path d="M15 6C15.5523 6 16 6.44772 16 7V8C16 8.55228 15.5523 9 15 9H14C13.4477 9 13 8.55228 13 8V7C13 6.44772 13.4477 6 14 6H15Z" fill="currentColor"></path>
<path fill-rule="evenodd" clip-rule="evenodd" d="M19.1025 2.00488C19.6067 2.05621 20 2.48232 20 3V20H21.1045C21.6568 20 22.1045 20.4477 22.1045 21C22.1045 21.5523 21.6568 22 21.1045 22H3.10449C2.55232 21.9999 2.10449 21.5522 2.10449 21C2.10449 20.4478 2.55232 20.0001 3.10449 20H4V3C4 2.48232 4.39333 2.05621 4.89746 2.00488L5 2H19L19.1025 2.00488ZM6 20H10V17.377C10 16.2724 10.8954 15.377 12 15.377C13.1046 15.377 14 16.2724 14 17.377V20H18V4H6V20Z" fill="currentColor"></path>
</svg>