<svg viewBox="0 0 24 24" fill="none" xmlns="http://www.w3.org/2000/svg">
<path d="M14.3453 15.7399C13.9549 15.3494 13.9549 14.7163 14.3453 14.3257C14.7357 13.9352 15.3687 13.9352 15.759 14.3257L17.5262 16.0935L19.2934 14.3257C19.6838 13.9352 20.3168 13.9352 20.7072 14.3257C21.0976 14.7162 21.0976 15.3494 20.7072 15.7399L18.94 17.5077L20.7072 19.2755C21.0976 19.666 21.0976 20.2992 20.7072 20.6897C20.3168 21.0802 19.6838 21.0802 19.2934 20.6897L17.5262 18.9219L15.759 20.6897C15.3686 21.0802 14.7357 21.0802 14.3453 20.6897C13.9549 20.2992 13.9549 19.666 14.3453 19.2755L16.1125 17.5077L14.3453 15.7399Z" fill="currentColor"></path>
<path d="M5.74911 3.99997C5.74911 3.44768 6.19668 2.99997 6.74879 2.99997C7.3009 2.99997 7.74847 3.44769 7.74847 3.99997V5.73892L9.4979 5.73892C10.05 5.73892 10.4976 6.18664 10.4976 6.73892C10.4976 7.29121 10.05 7.73892 9.4979 7.73892H7.74847V9.49997C7.74847 10.0523 7.3009 10.5 6.74879 10.5C6.19668 10.5 5.74911 10.0523 5.74911 9.49997L5.74911 7.73892H3.99968C3.44757 7.73892 3 7.29121 3 6.73892C3 6.18664 3.44757 5.73892 3.99968 5.73892L5.74911 5.73892L5.74911 3.99997Z" fill="currentColor"></path>
<path d="M13.4966 6.73892C13.4966 7.29121 13.9442 7.73892 14.4963 7.73892H19.9945C20.5466 7.73892 20.9942 7.29121 20.9942 6.73892C20.9942 6.18664 20.5466 5.73892 19.9945 5.73892L14.4963 5.73892C13.9442 5.73892 13.4966 6.18664 13.4966 6.73892Z" fill="currentColor"></path>
<path d="M3.99968 16.25C3.44757 16.25 3 15.8023 3 15.25C3 14.6977 3.44757 14.25 3.99968 14.25H9.4979C10.05 14.25 10.4976 14.6977 10.4976 15.25C10.4976 15.8023 10.05 16.25 9.4979 16.25H3.99968Z" fill="currentColor"></path>
<path d="M3 20C3 20.5523 3.44757 21 3.99968 21H9.4979C10.05 21 10.4976 20.5523 10.4976 20C10.4976 19.4477 10.05 19 9.4979 19H3.99968C3.44757 19 3 19.4477 3 20Z" fill="currentColor"></path>
</svg>