<svg width="24" height="24" viewBox="0 0 24 24" fill="none" xmlns="http://www.w3.org/2000/svg">
<path fill-rule="evenodd" clip-rule="evenodd" d="M20 4H17V3C17 2.45 16.55 2 16 2C15.45 2 15 2.45 15 3V4L9 4V3C9 2.45 8.55 2 8 2C7.45 2 7 2.45 7 3V4H4C2.9 4 2 4.9 2 6L2 20C2 21.1 2.9 22 4 22H20C21.1 22 22 21.1 22 20V6C22 4.9 21.1 4 20 4ZM20 20H4V12L20 12V20ZM20 10L4 10L4 6H7V7C7 7.55 7.45 8 8 8C8.55 8 9 7.55 9 7V6L15 6V7C15 7.55 15.45 8 16 8C16.55 8 17 7.55 17 7V6H20V10Z" fill="currentColor"></path>
</svg>