<svg viewBox="0 0 24 24" fill="none" xmlns="http://www.w3.org/2000/svg">
<path fill-rule="evenodd" clip-rule="evenodd" d="M12 4C7.58172 4 4 7.58172 4 12C4 16.4183 7.58172 20 12 20C16.4183 20 20 16.4183 20 12C20 7.58172 16.4183 4 12 4ZM2 12C2 6.47715 6.47715 2 12 2C17.5228 2 22 6.47715 22 12C22 17.5228 17.5228 22 12 22C6.47715 22 2 17.5228 2 12Z" fill="currentColor"></path>
<path d="M14.2166 15.8655C14.6246 16.2736 15.2861 16.2736 15.6941 15.8655C16.1022 15.4575 16.1022 14.796 15.6941 14.3879L13.4777 12.1715L15.6939 9.95521C16.1019 9.54718 16.1019 8.88565 15.6939 8.47762C15.2859 8.0696 14.6244 8.0696 14.2164 8.47762L12.0001 10.6939L9.78384 8.4776C9.37582 8.06957 8.71428 8.06957 8.30626 8.4776C7.89824 8.88562 7.89824 9.54716 8.30626 9.95518L10.5225 12.1715L8.30605 14.388C7.89803 14.796 7.89803 15.4575 8.30605 15.8656C8.71407 16.2736 9.37561 16.2736 9.78363 15.8656L12.0001 13.6491L14.2166 15.8655Z" fill="currentColor"></path>
</svg>