<svg viewBox="0 0 24 24" fill="none" xmlns="http://www.w3.org/2000/svg">
<path d="M17.7625 15.647C18.1198 15.2259 18.0681 14.5948 17.647 14.2375C17.2259 13.8802 16.5948 13.9319 16.2375 14.353L14.4051 16.5126L13.7179 15.8039C13.3334 15.4074 12.7003 15.3976 12.3039 15.7821C11.9074 16.1666 11.8976 16.7997 12.2821 17.1962L13.353 18.3005C13.9697 18.9365 15.0004 18.9023 15.5736 18.2268L17.7625 15.647Z" fill="currentColor"></path>
<path fill-rule="evenodd" clip-rule="evenodd" d="M15 23C18.866 23 22 19.866 22 16C22 14.0927 21.2372 12.3636 20 11.101V5C20 3.89543 19.1046 3 18 3H16.7324C16.3866 2.4022 15.7403 2 15 2L9 2C8.25972 2 7.61337 2.4022 7.26756 3H6C4.89543 3 4 3.89543 4 5L4 20C4 21.1046 4.89543 22 6 22H11.3924C12.446 22.6348 13.6803 23 15 23ZM15 21C17.7614 21 20 18.7614 20 16C20 13.2386 17.7614 11 15 11C12.2386 11 10 13.2386 10 16C10 18.7614 12.2386 21 15 21ZM18 5V9.67363C17.0907 9.24169 16.0736 9 15 9C11.134 9 8 12.134 8 16C8 17.4872 8.46382 18.8662 9.25469 20H6L6 5H7V6C7 7.10457 7.89543 8 9 8H15C16.1046 8 17 7.10457 17 6V5L18 5ZM9 4L15 4V6H9V4Z" fill="currentColor"></path>
</svg>