<svg viewBox="0 0 24 24" fill="none" xmlns="http://www.w3.org/2000/svg">
<path fill-rule="evenodd" clip-rule="evenodd" d="M14.41 13.78C14.78 13.28 15 12.67 15 12C15 10.34 13.66 9 12 9C10.34 9 9 10.34 9 12C9 12.68 9.23 13.31 9.61 13.81C9.56 13.85 9.51 13.89 9.45 13.93C8.63 14.59 8 15.61 8 17C8 17.55 8.45 18 9 18H15C15.55 18 16 17.55 16 17C16 15.79 15.43 14.55 14.41 13.78ZM12 11C12.55 11 13 11.45 13 12C13 12.55 12.55 13 12 13C11.45 13 11 12.55 11 12C11 11.45 11.45 11 12 11ZM10.26 16C10.38 15.8 10.53 15.63 10.71 15.49C11.14 15.14 11.67 15 12.01 15C12.83 15 13.44 15.42 13.76 16H10.27H10.26ZM18 3H16.73C16.38 2.4 15.74 2 15 2H9C8.26 2 7.61 2.4 7.27 3H6C4.9 3 4 3.9 4 5V20C4 21.1 4.9 22 6 22H18C19.1 22 20 21.1 20 20V5C20 3.9 19.1 3 18 3ZM9 4H15V6H9V4ZM18 20H6V5H7V6C7 7.1 7.9 8 9 8H15C16.1 8 17 7.1 17 6V5H18V20Z" fill="currentColor"></path>
</svg>