<svg width="24" height="24" viewBox="0 0 24 24" fill="none" xmlns="http://www.w3.org/2000/svg">
<path fill-rule="evenodd" clip-rule="evenodd" d="M14.4424 3.0364C14.9758 3.18278 15.288 3.72833 15.1398 4.25491L10.6285 20.2752C10.4802 20.8018 9.92759 21.11 9.39416 20.9636C8.86072 20.8172 8.54849 20.2717 8.69677 19.7451L13.208 3.72483C13.3563 3.19824 13.9089 2.89002 14.4424 3.0364ZM6.14271 16.5655L2.34989 12.8255C1.88337 12.3654 1.88337 11.6192 2.34989 11.1592L6.14271 7.41912C6.60871 6.95961 7.19909 6.91609 7.66509 7.3756C8.13161 7.83564 8.13161 8.2969 7.66509 8.75693L4.26658 11.9922L7.53719 15.1729C8.00371 15.633 8.15008 16.1773 7.68355 16.6373C7.21756 17.0968 6.60871 17.025 6.14271 16.5655ZM21.6501 12.8255L17.8573 16.5655C17.3913 17.025 16.7824 17.0968 16.3164 16.6373C15.8499 16.1773 15.9963 15.633 16.4628 15.1729L19.7334 11.9922L16.3349 8.75693C15.8684 8.2969 15.8684 7.83564 16.3349 7.3756C16.8009 6.91609 17.3913 6.95961 17.8573 7.41912L21.6501 11.1592C22.1166 11.6192 22.1166 12.3654 21.6501 12.8255Z" fill="currentColor"></path>
</svg>