<svg viewBox="0 0 24 24" fill="none" xmlns="http://www.w3.org/2000/svg">
<path fill-rule="evenodd" clip-rule="evenodd" d="M9.25996 3.65842C7.70983 2.1098 5.18427 2.11372 3.63903 3.66714C2.12212 5.19208 2.11803 7.64246 3.62982 9.17239L14.3399 20.011C14.6284 20.3028 15.0003 20.4996 15.4052 20.5746L20.313 21.4831C20.9988 21.6101 21.6028 21.0212 21.487 20.3384L20.6806 15.5863C20.6116 15.1802 20.4176 14.8053 20.1252 14.5131L9.25996 3.65842ZM7.48391 10.2271L15.7734 18.6161L19.2686 19.2631L18.7008 15.9171L10.2542 7.4787L7.48391 10.2271ZM6.06156 8.78773L8.82255 6.04848L7.83556 5.06245C7.07229 4.29992 5.82871 4.30185 5.06784 5.06674C4.32093 5.81762 4.31891 7.02417 5.06331 7.7775L6.06156 8.78773Z" fill="currentColor"></path>
</svg>