<svg viewBox="0 0 24 24" fill="none" xmlns="http://www.w3.org/2000/svg">
  <path fill-rule="evenodd" clip-rule="evenodd" d="M4 3C2.895 3 2 3.895 2 5V19C2 20.105 2.895 21 4 21H20C21.105 21 22 20.105 22 19V5C22 3.895 21.105 3 20 3H4ZM4 5H20V19H4V5Z" fill="currentColor"></path>
  <path d="M5.5 8C5.5 7.448 5.948 7 6.5 7H13.5C14.052 7 14.5 7.448 14.5 8V9C14.5 9.552 14.052 10 13.5 10H6.5C5.948 10 5.5 9.552 5.5 9V8Z" fill="currentColor"></path>
  <path d="M8.5 12C8.5 11.448 8.948 11 9.5 11H17.5C18.052 11 18.5 11.448 18.5 12V13C18.5 13.552 18.052 14 17.5 14H9.5C8.948 14 8.5 13.552 8.5 13V12Z" fill="currentColor"></path>
  <path d="M5.5 16C5.5 15.448 5.948 15 6.5 15H11.5C12.052 15 12.5 15.448 12.5 16V17C12.5 17.552 12.052 17 11.5 17H6.5C5.948 17 5.5 16.552 5.5 16Z" fill="currentColor"></path>
</svg>