<svg viewBox="0 0 24 24" fill="none" xmlns="http://www.w3.org/2000/svg">
  <path fill-rule="evenodd" clip-rule="evenodd" d="M7 2C7.552 2 8 2.448 8 3V4H16V3C16 2.448 16.448 2 17 2C17.552 2 18 2.448 18 3V4H19C20.105 4 21 4.895 21 6V20C21 21.105 20.105 22 19 22H5C3.895 22 3 21.105 3 20V6C3 4.895 3.895 4 5 4H6V3C6 2.448 6.448 2 7 2ZM5 10V20H19V10H5ZM5 8H19V6H18V6.5C18 7.052 17.552 7.5 17 7.5C16.448 7.5 16 7.052 16 6.5V6H8V6.5C8 7.052 7.552 7.5 7 7.5C6.448 7.5 6 7.052 6 6.5V6H5V8Z" fill="currentColor"></path>
  <path d="M6 13C6 12.448 6.448 12 7 12H14C14.552 12 15 12.448 15 13C15 13.552 14.552 14 14 14H7C6.448 14 6 13.552 6 13Z" fill="currentColor"></path>
  <path d="M6 17C6 16.448 6.448 16 7 16H17C17.552 16 18 16.448 18 17C18 17.552 17.552 18 17 18H7C6.448 18 6 17.552 6 17Z" fill="currentColor"></path>
</svg>