<svg viewBox="0 0 24 24" fill="none" xmlns="http://www.w3.org/2000/svg">
  <path fill-rule="evenodd" clip-rule="evenodd" d="M5 2C3.895 2 3 2.895 3 4V20C3 21.105 3.895 22 5 22H19C20.105 22 21 21.105 21 20V9C21 8.735 20.895 8.480 20.707 8.293L14.707 2.293C14.520 2.105 14.265 2 14 2H5ZM5 4H13V8C13 9.105 13.895 10 15 10H19V20H5V4ZM15 5.414L17.586 8H15V5.414Z" fill="currentColor"></path>
  <path d="M7 13C7 12.448 7.448 12 8 12H12C12.552 12 13 12.448 13 13C13 13.552 12.552 14 12 14H8C7.448 14 7 13.552 7 13Z" fill="currentColor"></path>
  <path fill-rule="evenodd" clip-rule="evenodd" d="M16 14.5C14.067 14.5 12.5 16.067 12.5 18C12.5 19.933 14.067 21.5 16 21.5C17.933 21.5 19.5 19.933 19.5 18C19.5 16.067 17.933 14.5 16 14.5ZM17.561 17.336C17.825 17.030 17.793 16.566 17.486 16.302C17.180 16.038 16.716 16.070 16.452 16.377L15.418 17.576L14.939 17.091C14.659 16.808 14.203 16.806 13.920 17.086C13.637 17.366 13.635 17.822 13.915 18.105L14.832 19.034C15.249 19.456 15.940 19.434 16.330 18.984L17.561 17.336Z" fill="currentColor"></path>
</svg>