<svg viewBox="0 0 24 24" fill="none" xmlns="http://www.w3.org/2000/svg">
  <path fill-rule="evenodd" clip-rule="evenodd" d="M12 2C6.477 2 2 6.477 2 12C2 17.523 6.477 22 12 22C17.523 22 22 17.523 22 12C22 6.477 17.523 2 12 2ZM12 4C16.418 4 20 7.582 20 12C20 16.418 16.418 20 12 20C7.582 20 4 16.418 4 12C4 7.582 7.582 4 12 4Z" fill="currentColor"></path>
  <path d="M12 5.5C11.448 5.5 11 5.948 11 6.5V12C11 12.265 11.105 12.520 11.293 12.707L14.793 16.207C15.183 16.598 15.817 16.598 16.207 16.207C16.598 15.817 16.598 15.183 16.207 14.793L13 11.586V6.5C13 5.948 12.552 5.5 12 5.5Z" fill="currentColor"></path>
</svg>