<svg viewBox="0 0 24 24" fill="none" xmlns="http://www.w3.org/2000/svg">
<path fill-rule="evenodd" clip-rule="evenodd" d="M6 5L6 4C6 2.89543 6.89543 2 8 2H16.1716C16.702 2 17.2107 2.21071 17.5858 2.58579L21.4142 6.41421C21.7893 6.78929 22 7.29799 22 7.82843V20C22 21.1046 21.1046 22 20 22H8C6.89543 22 6 21.1046 6 20V19H4C2.89543 19 2 18.1046 2 17V7C2 5.89543 2.89543 5 4 5H6ZM8 5H14C15.1046 5 16 5.89543 16 7V17C16 18.1046 15.1046 19 14 19H8V20H20V7.82843L16.1716 4H8V5ZM14 7L14 17H4L4 7H14ZM8.76357 10.875L7.80903 9.18182H6.0363L7.76357 12.0909L5.97948 15H7.77494L8.76357 13.2727H8.80903L9.79766 15H11.6045L9.79766 12.0909L11.5363 9.18182H9.77494L8.80903 10.875H8.76357Z" fill="currentColor"></path>
</svg>