<svg viewBox="0 0 24 24" fill="none" xmlns="http://www.w3.org/2000/svg">
<path fill-rule="evenodd" clip-rule="evenodd" d="M15.2929 8.70711C15.6834 9.09763 16.3166 9.09763 16.7071 8.70711C17.0976 8.31658 17.0976 7.68342 16.7071 7.29289L12.7071 3.29289C12.3166 2.90237 11.6834 2.90237 11.2929 3.29289C11.2897 3.29603 11.2866 3.29918 11.2835 3.30235L7.29289 7.29299C6.90237 7.68351 6.90237 8.31668 7.29289 8.7072C7.68342 9.09772 8.31658 9.09772 8.70711 8.7072L11 6.41431L11 14C11 14.5523 11.4477 15 12 15C12.5523 15 13 14.5523 13 14L13 6.41424L15.2929 8.70711ZM2 13C2 12.4477 2.44772 12 3 12C3.55228 12 4 12.4477 4 13L4 19H20V13C20 12.4477 20.4477 12 21 12C21.5523 12 22 12.4477 22 13V19C22 20.1046 21.1046 21 20 21H4C2.89543 21 2 20.1046 2 19V13Z" fill="currentColor"></path>
</svg>