<svg viewBox="0 0 24 24" fill="none" xmlns="http://www.w3.org/2000/svg">
<path fill-rule="evenodd" clip-rule="evenodd" d="M18 19.0004C17.1643 19.6281 16.1256 20 15 20C12.2386 20 10 17.7614 10 15C10 12.2386 12.2386 10 15 10C16.1256 10 17.1643 10.3719 18 10.9996C19.2142 11.9119 20 13.3644 20 15C20 16.6356 19.2142 18.0881 18 19.0004ZM18 22C19.1046 22 20 21.1046 20 20V19.899C21.2372 18.6364 22 16.9073 22 15C22 13.0927 21.2372 11.3636 20 10.101V8.82843C20 8.29799 19.7893 7.78929 19.4142 7.41421L14.5858 2.58579C14.2107 2.21071 13.702 2 13.1716 2H6C4.89543 2 4 2.89543 4 4V20C4 21.1046 4.89543 22 6 22H18ZM17.7194 8.54786L13.1716 4H6V20H10.101C8.80447 18.7295 8 16.9587 8 15C8 11.134 11.134 8 15 8C15.9645 8 16.8834 8.19505 17.7194 8.54786ZM16 14.9142L16.7929 15.7071C17.1834 16.0976 17.8166 16.0976 18.2071 15.7071C18.5976 15.3166 18.5976 14.6834 18.2071 14.2929L15.8485 11.9343C15.3799 11.4657 14.6201 11.4657 14.1515 11.9343L11.7929 14.2929C11.4024 14.6834 11.4024 15.3166 11.7929 15.7071C12.1834 16.0976 12.8166 16.0976 13.2071 15.7071L14 14.9142V17.5C14 18.0523 14.4477 18.5 15 18.5C15.5523 18.5 16 18.0523 16 17.5V14.9142Z" fill="currentColor"></path>
</svg>