<svg width="24" height="24" viewBox="0 0 24 24" fill="none" xmlns="http://www.w3.org/2000/svg">
<path fill-rule="evenodd" clip-rule="evenodd" d="M19.9933 2.00001C21.1006 1.99673 22 2.88598 22 3.98405V6.9861C22 7.52508 21.7789 8.04087 21.3875 8.41485L15.5543 13.9884V17.9249C15.5543 18.5963 15.2119 19.2222 14.6443 19.5882L11.4067 21.676C10.081 22.5309 8.31955 21.5957 8.31637 20.0196C8.31283 18.2645 8.30974 15.6399 8.31825 14.0428L2.59866 8.29952C2.23246 7.9318 2.02539 7.43689 2.02153 6.92009L2.00006 4.04606C1.99184 2.9469 2.88634 2.0506 3.99478 2.04732L19.9933 2.00001ZM19.9993 3.98405L4.00074 4.03136L4.02222 6.90539L10.3247 13.234L10.3216 13.6457C10.31 15.1536 10.3132 18.0931 10.3171 20.012L13.5536 17.9249V13.1449L19.9993 6.9861V3.98405Z" fill="currentColor"></path>
</svg>