<svg viewBox="0 0 24 24" fill="none" xmlns="http://www.w3.org/2000/svg">
<path fill-rule="evenodd" clip-rule="evenodd" d="M12.9881 20.0013C12.4424 20.0013 12 20.4487 12 21.0006C12 21.5526 12.4424 22 12.9881 22H21.0119C21.5576 22 22 21.5526 22 21.0006C22 20.4487 21.5576 20.0013 21.0119 20.0013H12.9881ZM17.4811 11.1334L12.8622 6.51643L13.7919 5.19111L12.532 3.93111L7.93193 8.52921L9.19185 9.78859L10.5183 8.85954L15.1347 13.474L14.2081 14.7987L15.468 16.0587L20.0681 11.4606L18.8081 10.2013L17.4811 11.1334ZM12.842 16.1649C12.722 16.0449 12.621 15.913 12.5392 15.7731L12.1815 16.13C12.0699 16.7079 11.7901 17.261 11.3403 17.7097L7.9505 21.0922C6.75439 22.2857 4.81511 22.2857 3.619 21.0922L2.89708 20.3718C1.70097 19.1783 1.70097 17.2433 2.89708 16.0498L6.28692 12.6673C6.72352 12.2317 7.25889 11.9558 7.81971 11.8381L8.20776 11.4509C8.07146 11.3702 7.94296 11.2712 7.82577 11.1541L6.56585 9.89471C5.81138 9.14057 5.81138 7.91786 6.56585 7.16371L11.1659 2.56561C11.9204 1.81146 13.1436 1.81146 13.8981 2.56561L15.158 3.82499C15.8313 4.498 15.9037 5.54417 15.3753 6.29747L17.6987 8.6199C18.4525 8.09022 19.5004 8.16217 20.1742 8.83576L21.4341 10.0951C22.1886 10.8493 22.1886 12.072 21.4341 12.8261L16.8341 17.4242C16.0796 18.1784 14.8564 18.1784 14.1019 17.4242L12.842 16.1649ZM8.70108 13.8401C8.36466 13.7562 7.99379 13.8455 7.73075 14.108L4.34092 17.4905C3.94221 17.8883 3.94221 18.5333 4.34091 18.9311L5.06283 19.6515C5.46154 20.0493 6.10796 20.0493 6.50667 19.6515L9.8965 16.269C10.1678 15.9983 10.2545 15.6131 10.1565 15.2692L12.1123 13.3176L10.6685 11.8769L8.70108 13.8401Z" fill="currentColor"></path>
</svg>