<svg viewBox="0 0 24 24" fill="none" xmlns="http://www.w3.org/2000/svg">
<path fill-rule="evenodd" clip-rule="evenodd" d="M12 2C6.48 2 2 6.48 2 12C2 17.52 6.48 22 12 22C17.52 22 22 17.52 22 12C22 6.48 17.52 2 12 2ZM18.93 8H16.47C16.1 6.61 15.56 5.47 14.97 4.57C16.64 5.24 18.04 6.46 18.93 8ZM12 4.19C12.71 4.76 13.74 5.97 14.39 8H9.61C10.26 5.97 11.28 4.76 12 4.19ZM9.03 4.57C8.44 5.47 7.9 6.61 7.53 8H5.07C5.96 6.46 7.36 5.24 9.03 4.57ZM4.25 14C4.09 13.36 4 12.69 4 12C4 11.31 4.09 10.64 4.25 10H7.14C7.05 10.7 7 11.46 7 12.26C7 12.87 7.03 13.45 7.1 14H4.26H4.25ZM5.07 16H7.47C7.76 17.12 8.17 18.08 8.63 18.9C8.73 19.07 8.83 19.23 8.93 19.39C7.3 18.71 5.95 17.51 5.07 16ZM13.62 17.74C13.24 18.44 12.83 19 12.45 19.41C12.27 19.6 12.11 19.75 11.98 19.85C11.55 19.54 10.94 18.92 10.37 17.91C10.06 17.37 9.78 16.73 9.55 16H14.38C14.16 16.64 13.9 17.22 13.62 17.74ZM9.11 14C9.04 13.45 9 12.87 9 12.26C9 11.44 9.06 10.69 9.16 10H14.85C14.95 10.69 15.01 11.44 15.01 12.26C15.01 12.86 14.96 13.45 14.88 14H9.12H9.11ZM14.93 19.45C15.08 19.21 15.23 18.96 15.38 18.7C15.81 17.92 16.19 17.01 16.48 16.01H18.93C18.03 17.57 16.62 18.79 14.93 19.46V19.45ZM16.89 14C16.96 13.44 17 12.86 17 12.26C17 11.46 16.95 10.71 16.86 10H19.75C19.91 10.64 20 11.31 20 12C20 12.69 19.91 13.36 19.75 14H16.89Z" fill="currentColor"></path>
</svg>