<svg viewBox="0 0 24 24" fill="none" xmlns="http://www.w3.org/2000/svg">
<path fill-rule="evenodd" clip-rule="evenodd" d="M22 12C22 17.5228 17.5228 22 12 22C6.47715 22 2 17.5228 2 12C2 6.47715 6.47715 2 12 2C17.5228 2 22 6.47715 22 12ZM19.748 14C18.8599 17.4505 15.7277 20 12 20C8.27232 20 5.14012 17.4505 4.25203 14H9C9.43043 14 9.81257 13.7246 9.94868 13.3162L11.0231 10.093L13.5561 17.3304C13.6889 17.7095 14.0356 17.9725 14.4366 17.998C14.8375 18.0235 15.2148 17.8065 15.3944 17.4472L17.118 14H19.748ZM20 12C20 7.58172 16.4183 4 12 4C7.58172 4 4 7.58172 4 12H8.27924L10.0513 6.68377C10.1866 6.27803 10.5649 6.00322 10.9925 6.00003C11.4202 5.99684 11.8026 6.26598 11.9439 6.66965L14.6629 14.4382L15.6056 12.5528C15.775 12.214 16.1212 12 16.5 12H20Z" fill="currentColor"></path>
</svg>