<svg viewBox="0 0 24 24" fill="none" xmlns="http://www.w3.org/2000/svg">
<path fill-rule="evenodd" clip-rule="evenodd" d="M19.0701 4.93006C15.1601 1.02006 8.83006 1.02006 4.93006 4.93006C1.02006 8.84006 1.02006 15.1701 4.93006 19.0701C8.84006 22.9801 15.1701 22.9801 19.0701 19.0701C22.9801 15.1601 22.9801 8.83006 19.0701 4.93006ZM17.6401 6.33006L17.6701 6.36006C17.9001 6.59006 18.1201 6.84006 18.3201 7.09006L16.2401 9.17006L15.5401 8.47006V8.45006L14.8401 7.75006L16.9201 5.67006C17.1701 5.87006 17.4201 6.08006 17.6501 6.32006L17.6401 6.33006ZM14.1201 14.1201C12.9501 15.2901 11.0601 15.2901 9.89006 14.1301L9.86006 14.1001C8.70006 12.9301 8.71006 11.0501 9.86006 9.88006L9.88006 9.86006C11.0501 8.70006 12.9401 8.70006 14.1101 9.86006L14.1301 9.88006C15.2901 11.0501 15.2901 12.9501 14.1301 14.1101L14.1201 14.1201ZM15.1201 4.63006L12.7001 7.05006C12.2301 6.98006 11.7501 6.98006 11.2901 7.05006L8.87006 4.63006C10.8601 3.79006 13.1301 3.79006 15.1201 4.63006ZM6.33006 6.35006C6.57006 6.11006 6.82006 5.89006 7.07006 5.69006L9.15006 7.77006L8.45006 8.47006H8.44006L8.43006 8.49006L7.73006 9.19006L5.65006 7.11006C5.85006 6.85006 6.07006 6.60006 6.31006 6.37006L6.33006 6.35006ZM4.63006 15.1201C3.79006 13.1301 3.79006 10.8601 4.63006 8.87006L7.05006 11.2901C6.98006 11.7601 6.98006 12.2401 7.05006 12.7101L4.63006 15.1301V15.1201ZM6.34006 17.6501C6.10006 17.4101 5.88006 17.1601 5.68006 16.9001L7.65006 14.9301L9.06006 16.3401L7.09006 18.3101C6.83006 18.1101 6.58006 17.8901 6.34006 17.6501ZM8.87006 19.3601L11.2901 16.9401C11.7601 17.0101 12.2401 17.0101 12.7001 16.9401L15.1201 19.3601C13.1301 20.2001 10.8601 20.2001 8.87006 19.3601ZM17.6601 17.6401C17.4201 17.8801 17.1801 18.0901 16.9201 18.2901L14.8401 16.2101L16.2501 14.8001L18.3301 16.8801C18.1301 17.1401 17.9101 17.3901 17.6801 17.6201L17.6601 17.6401ZM16.9401 12.7001C17.0101 12.2301 17.0101 11.7501 16.9401 11.2901L19.3601 8.87006C20.2001 10.8601 20.2001 13.1301 19.3601 15.1201L16.9401 12.7001Z" fill="currentColor"></path>
</svg>