<svg viewBox="0 0 24 24" fill="none" xmlns="http://www.w3.org/2000/svg">
<path fill-rule="evenodd" clip-rule="evenodd" d="M4 3C4 2.44772 4.44772 2 5 2H19C19.5523 2 20 2.44772 20 3C20 3.55228 19.5523 4 19 4H18V6.60927C18 7.45973 17.639 8.27023 17.0069 8.83916L13.4948 12L17.0069 15.1608C17.639 15.7298 18 16.5403 18 17.3907V20H19C19.5523 20 20 20.4477 20 21C20 21.5523 19.5523 22 19 22H5C4.44772 22 4 21.5523 4 21C4 20.4477 4.44772 20 5 20H6V17.3907C6 16.5403 6.36097 15.7298 6.99311 15.1608L10.5052 12L6.99311 8.83916C6.36096 8.27023 6 7.45973 6 6.60927V4H5C4.44772 4 4 3.55228 4 3ZM8 20H16V17.3907C16 17.1072 15.8797 16.8371 15.669 16.6474L12 13.3454L8.33104 16.6474C8.12032 16.8371 8 17.1072 8 17.3907V20ZM8 4H16V6.60927C16 6.89276 15.8797 7.16293 15.669 7.35257L12 10.6546L8.33104 7.35257C8.12032 7.16293 8 6.89276 8 6.60927V4Z" fill="currentColor"></path>
</svg>