<svg viewBox="0 0 24 24" fill="none" xmlns="http://www.w3.org/2000/svg">
<path fill-rule="evenodd" clip-rule="evenodd" d="M13 4C13 3.44772 12.5523 3 12 3C11.4477 3 11 3.44772 11 4V11.5858L8.70714 9.29289C8.31661 8.90237 7.68345 8.90237 7.29292 9.29289C6.9024 9.68342 6.9024 10.3166 7.29292 10.7071L11.2929 14.7071C11.6834 15.0976 12.3166 15.0976 12.7071 14.7071L12.7164 14.6977L16.7071 10.707C17.0976 10.3165 17.0976 9.68332 16.7071 9.2928C16.3166 8.90228 15.6834 8.90228 15.2929 9.2928L13 11.5857V4ZM22 13C22 12.4477 21.5523 12 21 12C20.4477 12 20 12.4477 20 13V19L4 19L4 13C4 12.4477 3.55228 12 3 12C2.44772 12 2 12.4477 2 13V19C2 20.1046 2.89543 21 4 21H20C21.1046 21 22 20.1046 22 19V13Z" fill="currentColor"></path>
</svg>