<svg viewBox="0 0 24 24" fill="none" xmlns="http://www.w3.org/2000/svg">
<path fill-rule="evenodd" clip-rule="evenodd" d="M20.3481 1.97742L4.34814 1.97743C3.24357 1.97743 2.34814 2.87286 2.34814 3.97743L2.34815 19.9774C2.34815 21.082 3.24357 21.9774 4.34815 21.9774H20.3481C21.4527 21.9774 22.3481 21.082 22.3481 19.9774V3.97743C22.3481 2.87286 21.4527 1.97742 20.3481 1.97742ZM20.3481 3.97743V12.9774H17.3481C16.2436 12.9774 15.3481 13.8728 15.3481 14.9774L15.3481 16.0549H9.34814V14.9774C9.34814 13.8728 8.45271 12.9774 7.34815 12.9774H4.34815L4.34814 3.97743H20.3481ZM4.34815 19.9774L4.34815 14.9774H7.34815L7.34814 15.9774C7.34814 17.082 8.24358 18.0549 9.34814 18.0549H15.3481C16.4527 18.0549 17.3481 17.082 17.3481 15.9774V14.9774H20.3481V19.9774H4.34815Z" fill="currentColor"></path>
</svg>