<svg viewBox="0 0 24 24" fill="none" xmlns="http://www.w3.org/2000/svg">
<path fill-rule="evenodd" clip-rule="evenodd" d="M19.9722 4.63507C20.2141 3.08924 18.9558 1.89052 17.4912 2.00528C16.182 2.10787 14.4326 2.51427 13.1933 3.59613C12.27 4.40204 11.7061 5.51579 11.3825 6.52115C11.1259 7.31807 10.9961 8.12222 10.9808 8.77587C10.7592 8.50168 10.5072 8.24527 10.2216 8.01999C9.09535 7.13187 7.5813 6.83511 6.427 6.78206C4.939 6.71368 3.71003 8.00495 4.07049 9.55788C4.33941 10.7164 4.97681 12.1605 6.23244 13.1506C7.21095 13.9223 8.32179 14.2582 9.31509 14.3389C9.90985 14.3872 10.488 14.3461 10.9989 14.2373V16.0572C8.03353 16.3846 5.50194 18.1499 4.11815 20.6397C3.76347 21.2779 4.26943 22.0023 4.99929 22.0023C5.40722 22.0023 5.77282 21.7636 5.98248 21.4135C7.2061 19.3703 9.4429 18.0023 11.9995 18.0023C14.5561 18.0023 16.7929 19.3703 18.0166 21.4135C18.2262 21.7636 18.5918 22.0023 18.9997 22.0023C19.7296 22.0023 20.2356 21.2779 19.8809 20.6397C18.4968 18.1493 15.9643 16.3837 12.998 16.0569V10.4099C13.4532 10.4498 13.9431 10.4413 14.4421 10.3742C15.527 10.2285 16.725 9.79665 17.7549 8.8976C19.1423 7.68645 19.7645 5.96248 19.9722 4.63507ZM17.9219 4.10014C17.9703 4.15007 18.0055 4.22506 17.9873 4.34185C17.8234 5.38909 17.346 6.60021 16.4406 7.39061C15.7632 7.982 14.9577 8.28153 14.1915 8.38448C13.7545 8.44321 13.3521 8.43509 13.0186 8.39102C13.0601 8.02127 13.1468 7.57972 13.2946 7.12082C13.5532 6.31743 13.9606 5.58059 14.5075 5.10312C15.268 4.4393 16.5034 4.09517 17.6308 4.00683C17.7746 3.99556 17.8698 4.0463 17.9219 4.10014ZM6.03581 9.10783C6.01075 8.99987 6.03981 8.93415 6.07755 8.89092C6.11933 8.84306 6.20288 8.79064 6.3407 8.79698C7.31155 8.84159 8.32944 9.09297 8.97508 9.60212C9.46284 9.98676 9.8486 10.6068 10.1097 11.3027C10.2427 11.6573 10.3319 12.0009 10.3861 12.2985C10.1215 12.3392 9.81039 12.356 9.47219 12.3285C8.80042 12.2739 8.08948 12.05 7.47892 11.5685C6.70454 10.9578 6.24154 9.99415 6.03581 9.10783Z" fill="currentColor"></path>
</svg>