<svg viewBox="0 0 24 24" fill="none" xmlns="http://www.w3.org/2000/svg">
<path fill-rule="evenodd" clip-rule="evenodd" d="M11 18H4C2.89543 18 2 17.1046 2 16V4C2 2.89543 2.89543 2 4 2H20C21.1046 2 22 2.89543 22 4V16C22 17.1046 21.1046 18 20 18H19V20.5539C19 21.6275 17.8265 22.3258 16.8292 21.8457L15 20.965L13.1708 21.8457C12.1735 22.3258 11 21.6275 11 20.5539V18ZM4 4H20V7.10102C18.7295 5.80447 16.9587 5 15 5C13.0927 5 11.3636 5.76281 10.101 7H7C6.44772 7 6 7.44772 6 8C6 8.55229 6.44772 9 7 9H8.67363C8.37829 9.62171 8.1719 10.2939 8.07089 11H7C6.44772 11 6 11.4477 6 12C6 12.5523 6.44772 13 7 13H8.07089C8.22881 14.1041 8.64436 15.125 9.25469 16H4V4ZM20 12C20 9.23858 17.7614 7 15 7C12.2386 7 10 9.23858 10 12C10 14.7614 12.2386 17 15 17C17.7614 17 20 14.7614 20 12Z" fill="currentColor"></path>
</svg>