<svg viewBox="0 0 24 24" fill="none" xmlns="http://www.w3.org/2000/svg">
<path fill-rule="evenodd" clip-rule="evenodd" d="M20.9264 3.59776C20.8795 3.48438 20.8101 3.3781 20.7183 3.28572L20.7142 3.28161C20.5391 3.10756 20.2978 3 20.0314 3H14.2245C13.6896 3 13.256 3.4336 13.256 3.96848C13.256 4.50336 13.6896 4.93696 14.2245 4.93696H17.6933L12 10.6304C11.6218 11.0086 11.6218 11.6218 12 12C12.3782 12.3782 12.9914 12.3782 13.3696 12L19.063 6.3066V9.77221C19.063 10.3071 19.4966 10.7407 20.0314 10.7407C20.5663 10.7407 20.9999 10.3071 20.9999 9.77221L20.9999 3.96558C20.9995 3.83532 20.9734 3.71111 20.9264 3.59776ZM10 5C10.5523 5 11 5.44772 11 6C11 6.55228 10.5523 7 10 7L5 7L5 19L17 19V14C17 13.4477 17.4477 13 18 13C18.5523 13 19 13.4477 19 14V19C19 20.1046 18.1046 21 17 21H5C3.89543 21 3 20.1046 3 19V7C3 5.89543 3.89543 5 5 5H10Z" fill="currentColor"></path>
</svg>