<svg viewBox="0 0 24 24" fill="none" xmlns="http://www.w3.org/2000/svg">
<path fill-rule="evenodd" clip-rule="evenodd" d="M11.5836 4.33705C9.43125 2.43752 6.29405 2.59323 4.45141 4.6051C2.49784 6.47881 2.53677 9.62351 4.44495 11.544C4.86554 11.9673 5.2262 12.3262 5.45141 12.5422C5.85049 12.925 6.49753 12.925 6.89661 12.5422C7.29568 12.1595 7.29568 11.5389 6.8966 11.1561L5.89697 10.1492C4.75689 9.0008 4.75673 7.13981 5.89661 5.99122L6.29405 5.60771C7.30545 4.6318 9.13391 4.81334 10.1322 5.80278L11.2658 6.9262C11.6743 7.33112 12.3333 7.3203 12.7285 6.9022C13.1162 6.49215 13.1035 5.84442 12.7002 5.45L11.5836 4.33705ZM8.29521 8.32989C8.68701 7.94065 9.32017 7.94272 9.70942 8.33452L15.7094 14.3739C16.0987 14.7657 16.0966 15.3989 15.7048 15.7881C15.313 16.1773 14.6798 16.1753 14.2906 15.7835L8.29058 9.7441C7.90134 9.3523 7.90341 8.71914 8.29521 8.32989ZM19.5486 19.3949C17.7059 21.4068 14.5688 21.5625 12.4164 19.663L11.2998 18.55C10.8965 18.1556 10.8838 17.5079 11.2715 17.0978C11.6667 16.6797 12.3257 16.6689 12.7342 17.0738L13.8678 18.1972C14.8661 19.1867 16.6946 19.3682 17.7059 18.3923L18.1034 18.0088C19.2433 16.8602 19.2431 14.9992 18.103 13.8508L17.1034 12.8439C16.7043 12.4611 16.7043 11.8405 17.1034 11.4578C17.5025 11.075 18.1495 11.075 18.5486 11.4578C18.7738 11.6738 19.1345 12.0327 19.555 12.456C21.4632 14.3765 21.5022 17.5212 19.5486 19.3949Z" fill="currentColor"></path>
</svg>