<svg viewBox="0 0 24 24" fill="none" xmlns="http://www.w3.org/2000/svg">
<path d="M15 10C15 8.34315 13.6569 7 12 7C10.3431 7 9 8.34315 9 10C9 11.6569 10.3431 13 12 13C13.6569 13 15 11.6569 15 10Z" fill="currentColor"></path>
<path fill-rule="evenodd" clip-rule="evenodd" d="M11.1824 21.6995C7.97172 19.4377 4.00529 14.5692 4.00379 10.5974C4.00374 10.439 4.00259 10.2919 4.00156 10.1617C3.9998 9.93675 3.99843 9.76213 4.00384 9.66626C4.24017 5.47917 7.78923 2 12.0235 2C16.1484 2 19.5389 5.15284 19.9299 9.18663C19.9374 9.26449 19.9467 9.34037 19.9561 9.4164C19.9775 9.59102 19.9991 9.76642 19.9994 9.9684C19.9995 10.0042 19.9995 10.0388 19.9996 10.0725C20 10.3115 20.0004 10.5026 19.9992 10.7224C19.9737 15.4038 15.8836 19.8549 12.9933 21.7397C12.4362 22.103 11.7264 22.0827 11.1824 21.6995ZM12.0235 3.99169C8.89636 3.99169 6.33192 6.40779 6.08498 9.48013C6.06153 9.69184 6.01986 10.0899 6.05002 10.6423C6.12827 12.0757 6.86066 13.9385 8.15635 15.6878C9.33205 17.275 10.7883 18.9439 12.0764 19.8667C13.2044 19.1223 14.5855 17.6594 15.7431 16.1976C17.1632 14.4043 18.0552 12.4355 18.0112 10.5308L17.9734 9.65213C17.8102 6.49844 15.2088 3.99169 12.0235 3.99169Z" fill="currentColor"></path>
</svg>