<svg width="24" height="24" viewBox="0 0 24 24" fill="none" xmlns="http://www.w3.org/2000/svg">
<path fill-rule="evenodd" clip-rule="evenodd" d="M15.68 7.45727L16.82 4.78861C17.39 3.46927 16.42 2 14.98 2H9.04C7.6 2 6.64 3.46927 7.2 4.78861L8.34 7.45727C5.23 8.55672 3 11.5152 3 15.0035V20.001C3 21.1004 3.9 22 5 22H19C20.1 22 21 21.1004 21 20.001V15.0035C21 11.5252 18.77 8.55672 15.66 7.45727H15.68ZM14.98 4.009L13.69 7.0075H13.28C13.19 7.0075 13.1 7.0075 13.01 7.0075H11.01C10.92 7.0075 10.83 7.0075 10.74 7.0075H10.33L9.04 4.009H14.98ZM19.01 20.001H5.02V15.0035C5.02 11.7651 7.58 9.13643 10.79 9.0065H13.25C16.46 9.12644 19.02 11.7651 19.02 15.0035V20.001H19.01Z" fill="currentColor"></path>
</svg>