<svg viewBox="0 0 24 24" fill="none" xmlns="http://www.w3.org/2000/svg">
<path d="M6.99988 12C6.99988 13.1046 6.10445 14 4.99988 14C3.89531 14 2.99988 13.1046 2.99988 12C2.99988 10.8955 3.89531 10 4.99988 10C6.10445 10 6.99988 10.8955 6.99988 12Z" fill="currentColor"></path>
<path d="M13.9999 12C13.9999 13.1046 13.1044 14 11.9999 14C10.8953 14 9.99988 13.1046 9.99988 12C9.99988 10.8955 10.8953 10 11.9999 10C13.1044 10 13.9999 10.8955 13.9999 12Z" fill="currentColor"></path>
<path d="M20.9999 12C20.9999 13.1046 20.1044 14 18.9999 14C17.8953 14 16.9999 13.1046 16.9999 12C16.9999 10.8955 17.8953 10 18.9999 10C20.1044 10 20.9999 10.8955 20.9999 12Z" fill="currentColor"></path>
</svg>