<svg width="24" height="24" viewBox="0 0 24 24" fill="none" xmlns="http://www.w3.org/2000/svg">
<path d="M8 12C8 11.4477 8.44771 11 9 11H15C15.5523 11 16 11.4477 16 12C16 12.5523 15.5523 13 15 13H9C8.44772 13 8 12.5523 8 12Z" fill="currentColor"></path>
<path d="M8 16C8 15.4477 8.44772 15 9 15H12C12.5523 15 13 15.4477 13 16C13 16.5523 12.5523 17 12 17H9C8.44772 17 8 16.5523 8 16Z" fill="currentColor"></path>
<path fill-rule="evenodd" clip-rule="evenodd" d="M10 4H14V3C14 2.44772 14.4477 2 15 2C15.5523 2 16 2.44772 16 3V4L18 4C19.1046 4 20 4.89543 20 6V20C20 21.1046 19.1046 22 18 22H6C4.89543 22 4 21.1046 4 20L4 6C4 4.89543 4.89543 4 6 4H8L8 3C8 2.44772 8.44771 2 9 2C9.55229 2 10 2.44772 10 3V4ZM10 6H14V7C14 7.55229 14.4477 8 15 8C15.5523 8 16 7.55229 16 7V6H18V20H6L6 6L8 6V7C8 7.55229 8.44771 8 9 8C9.55228 8 10 7.55228 10 7V6Z" fill="currentColor"></path>
</svg>