<svg width="24" height="24" viewBox="0 0 24 24" fill="none" xmlns="http://www.w3.org/2000/svg">
<path fill-rule="evenodd" clip-rule="evenodd" d="M20 16.17V14C20 12.9 19.1 12 18 12H13V9.87C14.73 9.43 16 7.86 16 6C16 3.79 14.21 2 12 2C9.79 2 8 3.79 8 6C8 7.86 9.27 9.43 11 9.87V12H6C4.9 12 4 12.9 4 14V16.17C2.83 16.58 2 17.69 2 19C2 20.66 3.34 22 5 22C6.66 22 8 20.66 8 19C8 17.69 7.17 16.58 6 16.17V14H11V16.17C9.83 16.58 9 17.69 9 19C9 20.66 10.34 22 12 22C13.66 22 15 20.66 15 19C15 17.69 14.17 16.58 13 16.17V14H18V16.17C16.83 16.58 16 17.69 16 19C16 20.66 17.34 22 19 22C20.66 22 22 20.66 22 19C22 17.69 21.17 16.58 20 16.17ZM5 20C4.45 20 4 19.55 4 19C4 18.45 4.45 18 5 18C5.55 18 6 18.45 6 19C6 19.55 5.55 20 5 20ZM12 20C11.45 20 11 19.55 11 19C11 18.45 11.45 18 12 18C12.55 18 13 18.45 13 19C13 19.55 12.55 20 12 20ZM12 8C10.9 8 10 7.1 10 6C10 4.9 10.9 4 12 4C13.1 4 14 4.9 14 6C14 7.1 13.1 8 12 8ZM19 20C18.45 20 18 19.55 18 19C18 18.45 18.45 18 19 18C19.55 18 20 18.45 20 19C20 19.55 19.55 20 19 20Z" fill="currentColor"></path>
</svg>