<svg width="24" height="24" viewBox="0 0 24 24" fill="none" xmlns="http://www.w3.org/2000/svg">
<path fill-rule="evenodd" clip-rule="evenodd" d="M4 4C2.89543 4 2 4.89543 2 6V18C2 19.1046 2.89543 20 4 20H20C21.1046 20 22 19.1046 22 18V6C22 4.89543 21.1046 4 20 4H4ZM4 6V18H15V6H4ZM17 18H20V6H17V18ZM6.70711 12.7071C6.31658 12.3166 6.31658 11.6834 6.70711 11.2929L9.53553 8.46447C9.92606 8.07394 10.5592 8.07394 10.9497 8.46447C11.3403 8.85499 11.3403 9.48816 10.9497 9.87868L8.82843 12L10.9497 14.1213C11.3403 14.5118 11.3403 15.145 10.9497 15.5355C10.5592 15.9261 9.92606 15.9261 9.53553 15.5355L6.70711 12.7071Z" fill="currentColor"></path>
</svg>