<svg viewBox="0 0 24 24" fill="none" xmlns="http://www.w3.org/2000/svg">
<path fill-rule="evenodd" clip-rule="evenodd" d="M12 6C12.5523 6 13 6.44772 13 7V7.5H14.5C15.0522 7.5 15.5 7.94772 15.5 8.5C15.5 9.05229 15.0522 9.5 14.5 9.5H13V11H13.25C14.7687 11 16 12.2312 16 13.75C16 15.2688 14.7687 16.5 13.25 16.5H13V17C13 17.5523 12.5523 18 12 18C11.4477 18 11 17.5523 11 17V16.5H9.49996C8.94767 16.5 8.49996 16.0523 8.49996 15.5C8.49996 14.9477 8.94767 14.5 9.49996 14.5H11V13H10.75C9.23122 13 8 11.7688 8 10.25C8 8.73122 9.23122 7.5 10.75 7.5H11V7C11 6.44772 11.4477 6 12 6ZM11 9.5H10.75C10.3358 9.5 10 9.83579 10 10.25C10 10.6642 10.3358 11 10.75 11H11V9.5ZM13 13V14.5H13.25C13.6642 14.5 14 14.1642 14 13.75C14 13.3358 13.6642 13 13.25 13H13Z" fill="currentColor"></path>
<path fill-rule="evenodd" clip-rule="evenodd" d="M12 22C17.5228 22 22 17.5228 22 12C22 6.47715 17.5228 2 12 2C6.47715 2 2 6.47715 2 12C2 17.5228 6.47715 22 12 22ZM12 20C16.4183 20 20 16.4183 20 12C20 7.58172 16.4183 4 12 4C7.58172 4 4 7.58172 4 12C4 16.4183 7.58172 20 12 20Z" fill="currentColor"></path>
</svg>