<svg viewBox="0 0 24 24" fill="none" xmlns="http://www.w3.org/2000/svg">
<path fill-rule="evenodd" clip-rule="evenodd" d="M5 6V4C5 2.89543 5.89543 2 7 2H15.1716C15.702 2 16.2107 2.21071 16.5858 2.58579L20.4142 6.41421C20.7893 6.78929 21 7.29799 21 7.82843V20C21 21.1046 20.1046 22 19 22H7C5.89543 22 5 21.1046 5 20V18C5 17.4477 5.44772 17 6 17C6.55229 17 7 17.4477 7 18V20H19V7.82843L15.1716 4H7V6C7 6.55228 6.55229 7 6 7C5.44772 7 5 6.55228 5 6ZM3 15V9H5.39443C5.80615 9 6.16639 9.08789 6.47518 9.26367C6.78396 9.43945 7.02413 9.68652 7.19568 10.0049C7.36722 10.3232 7.453 10.6953 7.453 11.1211C7.453 11.5508 7.36451 11.9229 7.18755 12.2373C7.01239 12.5518 6.76591 12.7939 6.44809 12.9639C6.13208 13.1338 5.76281 13.2188 5.34026 13.2188H4.506V15H3ZM5.03689 11.9531H4.506V10.3008H5.03689C5.21386 10.3008 5.36464 10.334 5.48924 10.4004C5.61564 10.4648 5.71225 10.5586 5.77906 10.6816C5.84768 10.8027 5.88199 10.9492 5.88199 11.1211C5.88199 11.291 5.84768 11.4385 5.77906 11.5635C5.71225 11.6885 5.61564 11.7852 5.48924 11.8535C5.36464 11.9199 5.21386 11.9531 5.03689 11.9531ZM10.14 15H8.00556V9H10.1183C10.6889 9 11.1819 9.12012 11.5972 9.36035C12.0143 9.59863 12.3358 9.94238 12.5615 10.3916C12.789 10.8389 12.9028 11.375 12.9028 12C12.9028 12.625 12.7899 13.1621 12.5642 13.6113C12.3385 14.0586 12.0189 14.4023 11.6053 14.6426C11.1918 14.8809 10.7034 15 10.14 15ZM9.51156 13.6172H10.0858C10.3603 13.6172 10.5941 13.5693 10.7873 13.4736C10.9823 13.3779 11.1304 13.2129 11.2315 12.9785C11.3345 12.7441 11.3859 12.418 11.3859 12C11.3859 11.582 11.3336 11.2559 11.2288 11.0215C11.1259 10.7871 10.9742 10.6221 10.7738 10.5264C10.5751 10.4307 10.3314 10.3828 10.0425 10.3828H9.51156V13.6172ZM17.5 9H13.5996V15H15.1056V12.9785H17.5V11.666H15.1056V10.3125H17.5V9Z" fill="currentColor"></path>
</svg>