<svg viewBox="0 0 24 24" fill="none" xmlns="http://www.w3.org/2000/svg">
<path fill-rule="evenodd" clip-rule="evenodd" d="M12 20C16.4183 20 20 16.4183 20 12C20 7.58172 16.4183 4 12 4C7.58172 4 4 7.58172 4 12C4 16.4183 7.58172 20 12 20ZM12 22C17.5228 22 22 17.5228 22 12C22 6.47715 17.5228 2 12 2C6.47715 2 2 6.47715 2 12C2 17.5228 6.47715 22 12 22ZM15.9098 7.96443C16.2638 7.60488 16.2693 7.02204 15.8707 6.7127C14.793 5.87632 13.4493 5.38001 11.9922 5.38001C10.5454 5.38001 9.21042 5.86934 8.13665 6.69505C7.73419 7.00453 7.7397 7.59158 8.09711 7.95214C8.46156 8.3198 9.05238 8.30906 9.4825 8.02099C10.2037 7.538 11.0659 7.25715 11.9922 7.25715C12.9258 7.25715 13.7942 7.5424 14.5188 8.03234C14.9499 8.32383 15.5448 8.33525 15.9098 7.96443Z" fill="currentColor"></path>
<path fill-rule="evenodd" clip-rule="evenodd" d="M13.7805 10.4068L16.45 11.5799C16.6211 11.6758 16.8054 11.7906 16.9141 11.9297C17.1836 12.2746 17.1462 12.7497 16.8547 13.0762C16.7552 13.1876 16.6297 13.2727 16.4893 13.3238L13.3164 14.5625C13.0391 14.6601 12.6267 14.8257 12.2461 14.8707C12.1902 14.8746 12.0569 14.8707 12 14.8707C10.6612 14.8707 9.57587 13.7854 9.57587 12.4466C9.57587 11.1078 10.7042 9.99609 12.043 9.99609C11.987 9.99223 12.0999 9.99609 12.043 9.99609C12.5469 9.99609 13.4258 10.2539 13.7805 10.4068Z" fill="currentColor"></path>
</svg>