<svg viewBox="0 0 24 24" fill="none" xmlns="http://www.w3.org/2000/svg">
<path fill-rule="evenodd" clip-rule="evenodd" d="M15.5112 19.9742C18.0325 19.7181 20 17.5888 20 15C20 14.9363 19.9988 14.8729 19.9964 14.8098C19.961 13.863 19.6624 12.9836 19.1716 12.2426C18.8001 11.6816 18.3184 11.1999 17.7574 10.8284C16.967 10.3049 16.0191 10 15 10C12.2386 10 10 12.2386 10 15C10 16.0191 10.3049 16.967 10.8284 17.7574C11.1999 18.3184 11.6816 18.8001 12.2426 19.1716C13.033 19.6951 13.9809 20 15 20C15.1726 20 15.3431 19.9913 15.5112 19.9742ZM15 22C18.866 22 22 18.866 22 15C22 11.134 18.866 8 15 8C14.0254 8 13.0973 8.19918 12.2542 8.55906C12.2086 8.54164 12.1627 8.52458 12.1164 8.50789C12.6691 7.82188 13 6.94958 13 6C13 3.79086 11.2092 2 9.00002 2C6.79088 2 5.00002 3.79086 5.00002 6C5.00002 7.03885 5.39605 7.98521 6.04537 8.69633C3.76694 9.79917 2 12.1208 2 15C2.00002 16.1046 2.89542 17 3.99998 17H8.28988C9.15043 19.8915 11.829 22 15 22ZM8 15C8 13.073 8.77867 11.3278 10.0385 10.062C9.71492 10.0217 9.36922 10 9 10C6.5 10 4 12.5 4 15L8 15ZM18.2071 13.2929C18.5976 13.6834 18.5976 14.3166 18.2071 14.7071L15.4192 17.495C14.9116 18.0027 14.0884 18.0027 13.5808 17.495L12.2929 16.2071C11.9024 15.8166 11.9024 15.1834 12.2929 14.7929C12.6834 14.4024 13.3166 14.4024 13.7071 14.7929L14.5 15.5858L16.7929 13.2929C17.1834 12.9024 17.8166 12.9024 18.2071 13.2929ZM7.00002 6C7.00002 7.10457 7.89545 8 9.00002 8C10.1046 8 11 7.10457 11 6C11 4.89543 10.1046 4 9.00002 4C7.89545 4 7.00002 4.89543 7.00002 6Z" fill="currentColor"></path>
</svg>