<svg viewBox="0 0 24 24" fill="none" xmlns="http://www.w3.org/2000/svg">
<path fill-rule="evenodd" clip-rule="evenodd" d="M15 8C14.03 8 13.1 8.2 12.25 8.56C12.2 8.54 12.16 8.53 12.11 8.51C12.66 7.82 12.99 6.95 12.99 6C12.99 3.79 11.2 2 8.98999 2C6.77999 2 4.98999 3.79 4.98999 6C4.98999 7.04 5.38999 7.99 6.03999 8.7C3.75999 9.8 1.98999 12.12 1.98999 15C1.98999 16.1 2.88999 17 3.98999 17H8.27999C9.13999 19.89 11.82 22 14.99 22C18.86 22 21.99 18.87 21.99 15C21.99 11.13 18.86 8 14.99 8H15ZM8.99999 4C10.1 4 11 4.9 11 6C11 7.1 10.1 8 8.99999 8C7.89999 8 6.99999 7.1 6.99999 6C6.99999 4.9 7.89999 4 8.99999 4ZM7.99999 15H3.99999C3.99999 12.5 6.49999 10 8.99999 10C9.36999 10 9.70999 10.02 10.04 10.06C8.77999 11.33 7.99999 13.07 7.99999 15ZM9.99999 15C9.99999 12.24 12.24 10 15 10C16.02 10 16.97 10.3 17.76 10.83L10.83 17.76C10.31 16.97 9.99999 16.02 9.99999 15ZM15 20C13.98 20 13.03 19.7 12.24 19.17L19.17 12.24C19.69 13.03 20 13.98 20 15C20 17.76 17.76 20 15 20Z" fill="currentColor"></path>
</svg>