<svg viewBox="0 0 24 24" fill="none" xmlns="http://www.w3.org/2000/svg">
<path d="M17 16C17.5948 16 18 15.5948 18 15C18 14.4052 17.5948 14 17 14H16V13C16 12.4052 15.5948 12 15 12C14.4052 12 14 12.4052 14 13V14H13C12.4052 14 12 14.4052 12 15C12 15.5948 12.4052 16 13 16H14V17C14 17.5948 14.4052 18 15 18C15.5948 18 16 17.5948 16 17V16H17Z" fill="currentColor"></path>
<path fill-rule="evenodd" clip-rule="evenodd" d="M15 22C18.866 22 22 18.866 22 15C22 11.134 18.866 8 15 8C14.0254 8 13.0973 8.19918 12.2542 8.55906C12.2086 8.54164 12.1627 8.52458 12.1164 8.50789C12.6691 7.82188 13 6.94958 13 6C13 3.79086 11.2092 2 9.00002 2C6.79088 2 5.00002 3.79086 5.00002 6C5.00002 7.03885 5.39605 7.98521 6.04537 8.69633C3.76694 9.79917 2 12.1208 2 15C2.00002 16.1046 2.89541 17 3.99998 17H8.2899C9.15045 19.8915 11.829 22 15 22ZM15 20C17.7614 20 20 17.7614 20 15C20 12.2386 17.7614 10 15 10C12.2386 10 10 12.2386 10 15C10 17.7614 12.2386 20 15 20ZM8.00002 15C8.00002 13.073 8.77869 11.3278 10.0385 10.062C9.71493 10.0217 9.36922 10 9 10C6.5 10 4 12.5 4 15L8.00002 15ZM7.00002 6C7.00002 7.10457 7.89545 8 9.00002 8C10.1046 8 11 7.10457 11 6C11 4.89543 10.1046 4 9.00002 4C7.89545 4 7.00002 4.89543 7.00002 6Z" fill="currentColor"></path>
</svg>