<svg viewBox="0 0 24 24" fill="none" xmlns="http://www.w3.org/2000/svg">
<path d="M15.502 13V15H16.502C17.0542 15 17.502 15.4477 17.502 16C17.502 16.5523 17.0542 17 16.502 17H15.502C14.3974 17 13.502 16.1046 13.502 15V13C13.502 12.4477 13.9497 12 14.502 12C15.0542 12 15.502 12.4477 15.502 13Z" fill="currentColor"></path>
<path fill-rule="evenodd" clip-rule="evenodd" d="M22 15C22 18.866 18.866 22 15 22C11.829 22 9.15043 19.8915 8.28988 17H3.99998C2.89542 17 2.00002 16.1046 2 15C2 12.1208 3.76694 9.79917 6.04537 8.69633C5.39605 7.98521 5.00002 7.03885 5.00002 6C5.00002 3.79086 6.79088 2 9.00002 2C11.2092 2 13 3.79086 13 6C13 6.94958 12.6691 7.82188 12.1164 8.50789C12.1627 8.52458 12.2086 8.54164 12.2542 8.55906C13.0973 8.19918 14.0254 8 15 8C18.866 8 22 11.134 22 15ZM20 15C20 17.5888 18.0325 19.7181 15.5112 19.9742C15.3431 19.9913 15.1726 20 15 20C13.9809 20 13.033 19.6951 12.2426 19.1716C11.6816 18.8001 11.1999 18.3184 10.8284 17.7574C10.3049 16.967 10 16.0191 10 15C10 12.2386 12.2386 10 15 10C16.0191 10 16.967 10.3049 17.7574 10.8284C18.3184 11.1999 18.8001 11.6816 19.1716 12.2426C19.6624 12.9836 19.961 13.863 19.9964 14.8098C19.9988 14.8729 20 14.9363 20 15ZM10.0385 10.062C8.77867 11.3278 8 13.073 8 15L4 15C4 12.5 6.5 10 9 10C9.36922 10 9.71492 10.0217 10.0385 10.062ZM9.00002 8C7.89545 8 7.00002 7.10457 7.00002 6C7.00002 4.89543 7.89545 4 9.00002 4C10.1046 4 11 4.89543 11 6C11 7.10457 10.1046 8 9.00002 8Z" fill="currentColor"></path>
</svg>