<svg viewBox="0 0 24 24" fill="none" xmlns="http://www.w3.org/2000/svg">
<path fill-rule="evenodd" clip-rule="evenodd" d="M20.7174 20.29L18.7566 18.33C19.5469 17.25 20.0071 15.93 20.0071 14.5C20.0071 10.91 17.096 8 13.5045 8C13.1344 8 12.7642 8.03 12.4141 8.09C12.7843 7.48 13.0043 6.77 13.0043 6C13.0043 3.79 11.2136 2 9.00276 2C6.79189 2 5.00118 3.79 5.00118 6C5.00118 7.04 5.40134 7.99 6.0516 8.7C3.7707 9.8 2 12.12 2 15C2 16.1 2.90036 17 4.00079 17H7.50217C8.48256 19.35 10.8035 21 13.5045 21C14.9351 21 16.2656 20.54 17.3361 19.75L19.2968 21.71C19.687 22.1 20.3172 22.1 20.7074 21.71C21.0975 21.32 21.0975 20.69 20.7074 20.3L20.7174 20.29ZM9.00276 4C10.1032 4 11.0036 4.9 11.0036 6C11.0036 7.1 10.1032 8 9.00276 8C7.90233 8 7.00197 7.1 7.00197 6C7.00197 4.9 7.90233 4 9.00276 4ZM7.00197 14.5C7.00197 14.67 7.00197 14.84 7.02198 15H4.00079C4.00079 12.57 6.37173 10.13 8.80268 10.01C7.68224 11.18 7.00197 12.76 7.00197 14.5ZM13.5045 19C11.0136 19 9.00276 16.99 9.00276 14.5C9.00276 12.01 11.0136 10 13.5045 10C15.9955 10 18.0063 12.01 18.0063 14.5C18.0063 16.99 15.9955 19 13.5045 19Z" fill="currentColor"></path>
</svg>