<svg viewBox="0 0 24 24" fill="none" xmlns="http://www.w3.org/2000/svg">
<path fill-rule="evenodd" clip-rule="evenodd" d="M22 15C22 18.866 18.866 22 15 22C11.829 22 9.15045 19.8915 8.2899 17H3.99998C2.89541 17 2.00002 16.1046 2 15C2 12.1208 3.76694 9.79917 6.04537 8.69633C5.39605 7.98521 5.00002 7.03885 5.00002 6C5.00002 3.79086 6.79088 2 9.00002 2C11.2092 2 13 3.79086 13 6C13 6.94958 12.6691 7.82188 12.1164 8.50789C12.1627 8.52458 12.2086 8.54164 12.2542 8.55906C13.0973 8.19918 14.0254 8 15 8C18.866 8 22 11.134 22 15ZM20 15C20 17.7614 17.7614 20 15 20C12.2386 20 10 17.7614 10 15C10 12.2386 12.2386 10 15 10C17.7614 10 20 12.2386 20 15ZM10.0385 10.062C8.77869 11.3278 8.00002 13.073 8.00002 15L4 15C4 12.5 6.5 10 9 10C9.36922 10 9.71493 10.0217 10.0385 10.062ZM9.00002 8C7.89545 8 7.00002 7.10457 7.00002 6C7.00002 4.89543 7.89545 4 9.00002 4C10.1046 4 11 4.89543 11 6C11 7.10457 10.1046 8 9.00002 8ZM12.5414 16H15.1272L14.3344 16.7515C13.9438 17.142 13.9438 17.7752 14.3344 18.1657C14.7249 18.5562 15.358 18.5562 15.7486 18.1657L18.1071 15.8071C18.5758 15.3385 18.5758 14.5787 18.1071 14.1101L15.7486 11.7515C15.358 11.361 14.7249 11.361 14.3344 11.7515C13.9438 12.142 13.9438 12.7752 14.3344 13.1657L15.1272 14H12.5414C11.9891 14 11.5414 14.4063 11.5414 14.9586C11.5414 15.5109 11.9891 16 12.5414 16Z" fill="currentColor"></path>
</svg>