<svg viewBox="0 0 24 24" fill="none" xmlns="http://www.w3.org/2000/svg">
<path fill-rule="evenodd" clip-rule="evenodd" d="M11.4081 10.4044C11.2034 10.3053 10.9921 10.2107 10.859 10.1718C10.5287 10.0752 9.40305 9.77132 8 10.1289C5.87429 10.6707 4 12.8353 4 15H9C9.55228 15 10 15.4477 10 16C10 16.5523 9.55228 17 9 17L3.99998 17C2.89541 17 2.00002 16.1046 2 15C2 12.1208 3.76694 9.79917 6.04537 8.69633C5.85144 8.48394 5.68011 8.25058 5.53517 8.00003C5.19483 7.41168 4.99998 6.72857 4.99998 6C4.99998 3.79086 6.79084 2 8.99998 2C11.2091 2 13 3.79086 13 6C13 6.72857 12.8052 7.41165 12.4649 8C12.32 8.25055 12.1486 8.48394 11.9546 8.69633C12.0924 8.76302 12.2277 8.83964 12.3606 8.92258C12.819 9.20871 12.8524 9.85526 12.4703 10.2374C12.1913 10.5164 11.7632 10.5764 11.4081 10.4044ZM9 8L9.02583 7.99984C9.15488 7.9982 9.28099 7.98434 9.40305 7.95937C10.3144 7.77288 11 6.96651 11 6C11 5.13705 10.4535 4.40176 9.68766 4.12136C9.47324 4.04285 9.24162 4 9 4C7.89543 4 7 4.89543 7 6C7 7.10457 7.89543 8 9 8Z" fill="currentColor"></path>
<path d="M12 13C12 12.4477 12.4477 12 13 12H21C21.5523 12 22 12.4477 22 13C22 13.5523 21.5523 14 21 14H13C12.4477 14 12 13.5523 12 13Z" fill="currentColor"></path>
<path d="M12 21C12 20.4477 12.4477 20 13 20H21C21.5523 20 22 20.4477 22 21C22 21.5523 21.5523 22 21 22H13C12.4477 22 12 21.5523 12 21Z" fill="currentColor"></path>
<path d="M13 16C12.4477 16 12 16.4477 12 17C12 17.5523 12.4477 18 13 18H19C19.5523 18 20 17.5523 20 17C20 16.4477 19.5523 16 19 16H13Z" fill="currentColor"></path>
</svg>