<svg viewBox="0 0 24 24" fill="none" xmlns="http://www.w3.org/2000/svg">
<path fill-rule="evenodd" clip-rule="evenodd" d="M6.42454 4.09967C6.19706 4.05004 5.98802 4.09692 5.80098 4.26459C5.72379 4.3338 5.64672 4.40592 5.5704 4.48092C4.84081 5.19795 4.22535 6.12947 4.13755 7.27422C3.96591 9.51212 4.90316 13.3701 7.65144 15.8713C7.67865 15.896 7.96011 16.1727 7.96011 16.1727C11.3438 19.2436 14.2923 20.0126 16.5702 19.9191C17.7353 19.8712 18.7018 19.2971 19.4543 18.6034C19.533 18.5309 19.6089 18.4575 19.6817 18.3838C19.8582 18.2055 19.9129 18.0014 19.8701 17.7759C19.8235 17.5299 19.6528 17.2547 19.3522 17.0653L18.0547 16.2477C17.7544 16.0584 17.4387 15.8927 17.1106 15.752L16.6396 15.5501C15.7856 15.1839 14.7674 15.3855 14.0822 16.0564C13.4686 16.6572 12.52 16.7474 11.8469 16.269L11.5279 16.0557C10.8073 15.5434 10.3867 15.2206 9.55605 14.4042C8.78942 13.6506 8.36133 13.0355 7.83579 12.2657L7.68444 12.044C7.22139 11.3657 7.34491 10.4354 7.97551 9.85199C8.67973 9.20044 8.91867 8.20545 8.57565 7.35292L8.38648 6.88276C8.25467 6.55516 8.09705 6.23905 7.91502 5.93721L7.12854 4.63314C6.94636 4.33107 6.67271 4.15382 6.42454 4.09967ZM11.0227 12.8919C10.2272 11.9984 10.0035 11.6836 9.62596 11.0941C10.7945 9.8434 11.1617 8.06089 10.5417 6.52002L9.80132 4.99603L8.955 3.52025C8.10393 2.10909 6.01188 1.32988 4.41652 2.76007C4.31519 2.8509 4.21316 2.94635 4.11133 3.04643C3.1579 3.98343 2.17465 5.37646 2.03428 7.20659C1.8148 10.0683 2.58337 13.879 6.26559 17.4985C9.9478 21.1179 13.6552 22.1102 16.568 21.9906C18.4309 21.9141 19.8783 20.9936 20.8617 20.0871C20.9667 19.9903 21.0671 19.8931 21.1627 19.7965C22.6684 18.2751 21.9477 16.1907 20.5436 15.3059L19.2238 14.527L17.5514 13.6439C16.0079 12.9821 14.1858 13.2833 12.8767 14.3909C12.3977 14.1357 11.9706 13.7789 11.028 12.8919C11.0265 12.8906 11.0241 12.8905 11.0227 12.8919Z" fill="currentColor"></path>
</svg>