<svg viewBox="0 0 24 24" fill="none" xmlns="http://www.w3.org/2000/svg">
<path fill-rule="evenodd" clip-rule="evenodd" d="M21.5023 10.1284C19.7514 8.37931 15.8094 7.53973 13.7884 8.76911L12.3377 7.28986C12.6478 5.90055 12.1076 3.58171 11.017 2.50225C10.3467 1.83258 9.25613 1.83258 8.58579 2.50225L2.50275 8.57921C1.83242 9.24888 1.83242 10.3383 2.50275 11.008C3.58329 12.0875 5.75438 12.7571 7.14507 12.4473L8.58579 13.9665C7.35518 15.9955 8.3957 19.7336 10.1466 21.4828C10.8369 22.1724 11.9475 22.1724 12.6278 21.4828L16.3497 17.7646L19.7814 21.1929C20.1716 21.5827 20.8019 21.5727 21.1921 21.1929C21.5823 20.8031 21.5923 20.1734 21.1921 19.7836L17.7604 16.3553L21.4822 12.6372C22.1726 11.9475 22.1726 10.8381 21.4822 10.1584L21.5023 10.1284ZM7.51526 9.98851C6.68484 10.8181 5.04402 10.4683 4.14357 9.76861L9.7964 4.12144C10.4967 5.02099 10.7769 6.73013 9.95648 7.54972L7.52526 9.97851L7.51526 9.98851ZM8.71586 11.2279L11.1071 8.83908L12.3477 10.1284L9.95648 12.5172L8.71586 11.2279ZM11.4072 19.8636C10.0165 18.4743 9.22611 16.0055 11.1871 14.2164C13.098 12.3073 12.4077 12.987 14.1686 11.2279C16.1996 9.1989 18.5108 9.98851 19.9014 11.3778L11.4072 19.8636Z" fill="currentColor"></path>
</svg>