<svg viewBox="0 0 24 24" fill="none" xmlns="http://www.w3.org/2000/svg">
<path d="M14.8416 7C15.4085 7 15.868 7.44772 15.868 8C15.868 8.55228 15.4085 9 14.8416 9H10.7361C10.1692 9 9.70966 8.55228 9.70966 8C9.70966 7.44772 10.1692 7 10.7361 7H14.8416Z" fill="currentColor"></path>
<path fill-rule="evenodd" clip-rule="evenodd" d="M18.9472 2C20.0809 2 21 2.89543 21 4V20C21 21.1046 20.0809 22 18.9472 22H6.63047C5.49675 22 4.57768 21.1046 4.57768 20V18H4.02539C3.45876 17.9997 3 17.5521 3 17C3 16.4477 3.45953 16 4.02639 16H4.57768V13H4.02539C3.45876 12.9997 3 12.5521 3 12C3 11.4477 3.45953 11 4.02639 11H4.57768V8H4.02539C3.45876 7.99974 3 7.55212 3 7C3 6.44772 3.45953 6 4.02639 6H4.57768V4C4.57768 2.89543 5.49675 2 6.63047 2H18.9472ZM6.63047 6H7.10558C7.67221 6.00026 8.13197 6.44788 8.13197 7C8.13197 7.55212 7.67221 7.99974 7.10558 8H6.63047V11H7.10558C7.67221 11.0003 8.13197 11.4479 8.13197 12C8.13197 12.5521 7.67221 12.9997 7.10558 13H6.63047V16H7.10558C7.67221 16.0003 8.13197 16.4479 8.13197 17C8.13197 17.5521 7.67221 17.9997 7.10558 18H6.63047V20H18.9472V4H6.63047V6Z" fill="currentColor"></path>
</svg>