<svg viewBox="0 0 24 24" fill="none" xmlns="http://www.w3.org/2000/svg">
<path fill-rule="evenodd" clip-rule="evenodd" d="M18 9H20C21.1046 9 22 9.89543 22 11V18C22 19.1046 21.1046 20 20 20H18C18 21.1046 17.1046 22 16 22L8 22C6.89543 22 6 21.1046 6 20H4C2.89543 20 2 19.1046 2 18L2 11C2 9.89543 2.89543 9 4 9L6 9L6 4C6 2.89543 6.89543 2 8 2L16 2C17.1046 2 18 2.89543 18 4L18 9ZM20 11V18H18V17C18 15.8954 17.1046 15 16 15L8 15C6.89543 15 6 15.8954 6 17V18L4 18L4 11H20ZM8 9L8 4H16L16 9L8 9ZM16 17H8V20H16V17Z" fill="currentColor"></path>
</svg>