<svg viewBox="0 0 24 24" fill="none" xmlns="http://www.w3.org/2000/svg">
<path fill-rule="evenodd" clip-rule="evenodd" d="M3.00002 16.002C3.00747 14.9031 3.87005 14.0126 5.00001 14.0119L10.2389 14.0119C10.8067 14.0115 11.2674 14.459 11.2678 15.0112C11.2682 15.5635 10.8081 16.0115 10.2402 16.0119L5.00002 16.002L5.00001 21C4.99627 21.5523 4.56789 22.0037 4.00001 22C3.43214 21.9964 2.99628 21.5523 3.00002 21L3.00002 16.002Z" fill="currentColor"></path>
<path fill-rule="evenodd" clip-rule="evenodd" d="M12.1334 21.359C7.67598 21.3928 4.67865 18.2026 3.64515 16.4481C3.36286 15.9689 3.53349 15.3579 4.02625 15.0834C4.51901 14.8088 5.1473 14.9748 5.42959 15.454C6.27433 16.888 8.7061 19.3849 12.1174 19.3591C16.1181 19.3287 18.307 16.4346 18.8697 15.2457C18.9272 15.1241 18.9623 15.0479 18.9823 15.004C18.9923 14.982 18.9983 14.9685 19.0013 14.9616L19.0035 14.9566C19.2203 14.4482 19.8193 14.2055 20.3434 14.4145C20.8688 14.624 21.1201 15.2081 20.9047 15.7191L20.9026 15.724C20.9047 15.7191 20.9047 15.7191 20.9047 15.7191L20.9042 15.7202L20.9037 15.7214L20.9026 15.724L20.8998 15.7305L20.8918 15.7488C20.8853 15.7636 20.8762 15.7841 20.8635 15.8119C20.8383 15.8675 20.7987 15.9533 20.7378 16.082C19.998 17.645 17.247 21.3202 12.1334 21.359Z" fill="currentColor"></path>
<path fill-rule="evenodd" clip-rule="evenodd" d="M21.0001 7.99129C20.9926 9.09018 20.1301 9.99925 19.0001 9.99997L13.7588 9.99129C13.1909 9.99166 12.7302 9.54423 12.7299 8.99195C12.7295 8.43967 13.1896 7.99166 13.7575 7.99129L19.0001 7.99997L19.0001 2.99996C19.0038 2.44769 19.4322 1.99632 20.0001 1.99996C20.568 2.0036 21.0038 2.44769 21.0001 2.99996V7.99129Z" fill="currentColor"></path>
<path fill-rule="evenodd" clip-rule="evenodd" d="M11.8643 2.6442C16.3217 2.61037 19.319 5.80054 20.3525 7.55505C20.6348 8.03427 20.4642 8.64531 19.9714 8.91984C19.4786 9.19436 18.8504 9.02843 18.5681 8.54921C17.7233 7.11514 15.2916 4.61825 11.8803 4.64413C7.87958 4.67449 5.69066 7.56862 5.12798 8.75748C5.07044 8.87905 5.03531 8.95524 5.01534 8.99922C5.00538 9.02115 4.99936 9.03471 4.99632 9.0416L4.99414 9.04659C4.77735 9.55502 4.17841 9.79771 3.65426 9.5887C3.12883 9.37918 2.87752 8.79509 3.09296 8.28409L3.09496 8.27915C3.09296 8.2841 3.09296 8.28409 3.09296 8.28409L3.09342 8.28299L3.09393 8.28181L3.09496 8.27915L3.09782 8.27271L3.10581 8.25441C3.11232 8.23962 3.24722 7.94902 3.25986 7.9212C3.99963 6.35817 6.75066 2.683 11.8643 2.6442Z" fill="currentColor"></path>
</svg>