<svg viewBox="0 0 24 24" fill="none" xmlns="http://www.w3.org/2000/svg">
<path fill-rule="evenodd" clip-rule="evenodd" d="M4 22H8.99442L9 22H15L15.0056 22H20C21.1046 22 22 21.1041 22 19.9989V9.85125C22 9.28911 21.7637 8.75289 21.3489 8.37377L18.3933 5.67264L14.9101 2.51759C14.5352 2.17801 14.0456 1.99314 13.5399 2.00019L3.97211 2.13372C2.87852 2.14898 2 3.04032 2 4.1346V19.9989C2 21.1041 2.89543 22 4 22ZM20 19.9989V9.85125L17.0511 7.15612L17 7.10987V8.99402C17 10.0986 16.1046 10.994 15 10.994H9C7.89543 10.994 7 10.0986 7 8.99402V4.09273L4 4.1346V19.9989H7V15.9957C7 14.8911 7.89543 13.9957 9 13.9957H15C16.1046 13.9957 17 14.8911 17 15.9957V19.9989H20ZM9 4.06482V8.99402L15 8.99402V5.29832L13.5678 4.00108L9 4.06482ZM9 19.9989H15V15.9957H9V19.9989Z" fill="currentColor"></path>
</svg>