<svg viewBox="0 0 24 24" fill="none" xmlns="http://www.w3.org/2000/svg">
<path fill-rule="evenodd" clip-rule="evenodd" d="M14.0521 12.93C13.972 13.15 13.9019 13.32 13.8619 13.44L13.7918 13.62C13.7417 13.75 13.7217 13.88 13.7317 14C13.7317 16.21 15.5836 18 17.8659 18C20.1481 18 22 16.21 22 14C22 13.86 21.98 13.72 21.9199 13.59L19.1672 6.92C19.007 6.53 18.7167 6.26 18.3764 6.12C18.2362 6.04 18.0761 6 17.9059 6H12.9309V3C12.9309 2.45 12.4805 2 11.9399 2C11.3994 2 10.9489 2.45 10.9489 3V6H5.97397C5.82382 6 5.67367 6.03 5.54354 6.1C5.2032 6.23 4.9029 6.5 4.73273 6.91C4.19219 8.2 3.52152 9.9 2.99099 11.27L2 13.89C2 13.89 2 14.1 2 14.11C2.06006 16.27 3.86186 18 6.07407 18C8.28629 18 10.0881 16.27 10.1481 14.11L10.1181 13.92L7.86587 8H10.9489V20H6.47447C5.92392 20 5.48348 20.45 5.48348 21C5.48348 21.55 5.93393 22 6.47447 22H17.4254C17.976 22 18.4164 21.55 18.4164 21C18.4164 20.45 17.966 20 17.4254 20H12.951V8H16.014C15.5836 9.06 15.1231 10.22 14.7427 11.22C14.4825 11.9 14.2523 12.5 14.0821 12.93H14.0521ZM8.08609 14.11C8.02603 15.16 7.13514 16 6.05405 16C4.97297 16 4.07207 15.16 4.02202 14.1L6.06406 8.87L8.0961 14.11H8.08609ZM15.9139 13.64C16.0741 13.21 16.3043 12.62 16.5646 11.94C16.9349 10.97 17.3854 9.85 17.7958 8.83L19.9379 14C19.9379 15.1 19.017 16 17.8659 16C16.7147 16 15.7938 15.1 15.7938 14H15.7738L15.9139 13.64Z" fill="currentColor"></path>
</svg>