<svg viewBox="0 0 24 24" fill="none" xmlns="http://www.w3.org/2000/svg">
<path fill-rule="evenodd" clip-rule="evenodd" d="M10.2986 2.00002C5.72442 1.991 2.00904 5.69213 2.00002 10.2667C1.991 14.8413 5.69177 18.5571 10.2659 18.5661C12.1713 18.5699 13.9277 17.9298 15.3293 16.851L20.2956 21.7137C20.6913 22.1012 21.3263 22.0945 21.7137 21.6987C22.1012 21.3029 22.0945 20.6679 21.6987 20.2804L16.7601 15.4448C17.8861 14.0333 18.5606 12.2454 18.5645 10.2994C18.5735 5.7248 14.8727 2.00904 10.2986 2.00002ZM4.0057 10.2707C4.01254 6.80391 6.82818 3.99907 10.2946 4.0059C13.7611 4.01274 16.5656 6.82866 16.5588 10.2954C16.5519 13.7622 13.7363 16.5671 10.2699 16.5602C6.80343 16.5534 3.99887 13.7375 4.0057 10.2707Z" fill="currentColor"></path>
</svg>