<svg viewBox="0 0 24 24" fill="none" xmlns="http://www.w3.org/2000/svg">
<path d="M15 12C15 13.6569 13.6569 15 12 15C10.3432 15 9.00005 13.6569 9.00005 12C9.00005 10.3431 10.3432 9 12 9C13.6569 9 15 10.3431 15 12Z" fill="currentColor"></path>
<path fill-rule="evenodd" clip-rule="evenodd" d="M10.2433 2.18953C11.3886 1.93626 12.5777 1.93741 13.7206 2.18949C14.9196 2.45396 15.6421 3.51378 15.6421 4.58788V4.67037L16.7476 5.29589L16.7924 5.32146L17.2785 5.05505C18.0443 4.63539 18.9837 4.68838 19.697 5.1915C20.9794 6.09597 21.8114 7.49707 21.9846 9.04056C22.1056 10.1182 21.5004 11.0145 20.7228 11.4406L20.2696 11.689V12.5892C20.2696 12.6309 20.2692 12.6726 20.2685 12.7142L20.6032 12.9053C21.3701 13.343 21.9592 14.2446 21.8241 15.3171C21.6273 16.8797 20.7522 18.2844 19.4261 19.1642C18.7189 19.6334 17.8062 19.6639 17.069 19.2431L16.3655 18.8416L15.6768 19.2312V19.4126C15.6768 20.4854 14.9557 21.5453 13.7568 21.8105C12.6115 22.0637 11.4224 22.0626 10.2795 21.8105C9.08047 21.546 8.35795 20.4862 8.35795 19.4121V19.3296L7.25253 18.7041L7.20772 18.6785L6.72157 18.9449C5.95574 19.3646 5.01644 19.3116 4.30312 18.8085C3.02074 17.904 2.18871 16.5029 2.01545 14.9594C1.89448 13.8818 2.49966 12.9855 3.27733 12.5594L3.7305 12.311L3.73163 11.2858C3.73088 11.3274 3.73163 11.2441 3.73163 11.2858L3.39685 11.0947C2.63002 10.657 2.04093 9.75537 2.17602 8.68288C2.37284 7.12031 3.24785 5.71555 4.57399 4.83577C5.28115 4.36664 6.19392 4.33607 6.93112 4.75686L7.63463 5.15841L8.32325 4.76875V4.58745C8.32325 3.51461 9.04435 2.45466 10.2433 2.18953ZM9.99517 6.12186L7.95146 7.27908C7.85456 7.3339 8.04365 7.21847 7.95146 7.27908C7.78481 7.38863 7.5702 7.4045 7.39695 7.30561L5.94207 6.47518C5.85907 6.42781 5.75631 6.43125 5.67669 6.48407C4.82804 7.04707 4.27383 7.942 4.14945 8.92938C4.12646 9.11195 4.2256 9.28489 4.3859 9.37639L5.53945 10.0348C5.73215 10.1448 5.82563 10.3684 5.78867 10.5865V13.0528C5.80668 13.2606 5.65773 13.5156 5.47422 13.6161L4.23619 14.2946C4.07366 14.3836 3.97143 14.5558 3.99203 14.7394C4.10182 15.7175 4.63016 16.6121 5.45266 17.1922C5.54411 17.2567 5.66453 17.2635 5.7627 17.2097L7.03605 16.512C7.22223 16.4099 7.45144 16.439 7.61851 16.5698L10.0124 17.9464C10.2094 18.0285 10.3468 18.2152 10.3468 18.4278V19.4121C10.3468 19.6329 10.4932 19.8291 10.7096 19.8768C11.5702 20.0666 12.4653 20.0672 13.3256 19.877C13.5419 19.8292 13.6879 19.6331 13.6879 19.4126V18.3523C13.6879 18.1463 13.817 17.9641 14.0049 17.8781L16.0486 16.7209C16.2153 16.6114 16.4299 16.5955 16.6031 16.6944L18.058 17.5248C18.141 17.5722 18.2438 17.5687 18.3234 17.5159C19.1721 16.9529 19.7263 16.058 19.8506 15.0706C19.8736 14.888 19.7745 14.7151 19.6142 14.6236L18.5115 13.9438C18.3188 13.8338 18.2253 13.6102 18.2623 13.3921V10.8964C18.2443 10.6885 18.3424 10.4844 18.5259 10.3839L19.7639 9.70543C19.9264 9.61637 20.0287 9.44418 20.0081 9.26058C19.8983 8.28254 19.3699 7.38787 18.5474 6.80775C18.456 6.74325 18.3356 6.73646 18.2374 6.79026L16.964 7.48803C16.7779 7.59005 16.5487 7.56099 16.3816 7.43022L13.9877 6.05356C13.7907 5.97149 13.6532 5.78484 13.6532 5.57216V4.58788C13.6532 4.36712 13.5069 4.17094 13.2905 4.1232C12.4299 3.93339 11.5348 3.93275 10.6744 4.12301C10.4582 4.17082 10.3121 4.3669 10.3121 4.58745V5.64772C10.3121 5.85365 10.1831 6.03591 9.99517 6.12186C10.1203 6.05104 9.86576 6.18104 9.99517 6.12186Z" fill="currentColor"></path>
</svg>