<svg viewBox="0 0 24 24" fill="none" xmlns="http://www.w3.org/2000/svg">
<path fill-rule="evenodd" clip-rule="evenodd" d="M13.7888 3.57774C13.0517 2.10364 10.9481 2.10364 10.2111 3.57774L7.44712 9.10561C6.78222 10.4354 7.74921 12 9.23598 12H14.7638C16.2506 12 17.2176 10.4354 16.5527 9.10561L13.7888 3.57774ZM14.7638 10L11.9999 4.47217L9.23598 10L14.7638 10Z" fill="currentColor"></path>
<path fill-rule="evenodd" clip-rule="evenodd" d="M4 13.0001C2.89543 13.0001 2 13.8955 2 15.0001V20.0001C2 21.1046 2.89543 22.0001 4 22.0001H9C10.1046 22.0001 11 21.1046 11 20.0001V15.0001C11 13.8955 10.1046 13.0001 9 13.0001H4ZM9 15.0001H4L4 20.0001H9V15.0001Z" fill="currentColor"></path>
<path fill-rule="evenodd" clip-rule="evenodd" d="M13 17.5001C13 15.0148 15.0147 13.0001 17.5 13.0001C19.9853 13.0001 22 15.0148 22 17.5001C22 19.9853 19.9853 22.0001 17.5 22.0001C15.0147 22.0001 13 19.9853 13 17.5001ZM17.5 20.0001C16.1193 20.0001 15 18.8808 15 17.5001C15 16.1193 16.1193 15.0001 17.5 15.0001C18.8807 15.0001 20 16.1193 20 17.5001C20 18.8808 18.8807 20.0001 17.5 20.0001Z" fill="currentColor"></path>
</svg>