<svg width="24" height="24" viewBox="0 0 24 24" fill="none" xmlns="http://www.w3.org/2000/svg">
<path fill-rule="evenodd" clip-rule="evenodd" d="M11.6716 2.10557C11.8762 2.00263 12.1178 1.99709 12.3271 2.09056L19.3271 5.21556C19.7367 5.39847 20 5.80502 20 6.25342V12.0287C20 16.0084 17.6394 19.6107 13.9899 21.2014L12.397 21.8957C12.1425 22.0066 11.8534 22.0073 11.5984 21.8976L9.96695 21.1958C6.32978 19.6307 4 16.0405 4 12.0775V6.25342C4 5.80502 4.26328 5.39847 4.67292 5.21556L11.6716 2.10557ZM6 6.90178V12.0775C6 15.2429 7.86097 18.1107 10.7588 19.3577L11.9956 19.8898L13.1925 19.3681C16.1131 18.0954 18 15.214 18 12.0287V6.90135L12.0023 4.22414L6 6.90178ZM12 8C10.3431 8 9 9.34315 9 11C9 11.8718 9.37183 12.6566 9.96565 13.2042C8.8108 13.7758 8 14.9645 8 16.3429C8 17.1234 8.63266 17.75 9.41311 17.75H14.5869C15.3673 17.75 16 17.1234 16 16.3429C16 14.9645 15.1892 13.7758 14.0344 13.2042C14.6282 12.6566 15 11.8718 15 11C15 9.34315 13.6569 8 12 8ZM11 11C11 10.4477 11.4477 10 12 10C12.5523 10 13 10.4477 13 11C13 11.5523 12.5523 12 12 12C11.4477 12 11 11.5523 11 12ZM10.0717 15.75H13.9283C13.7036 14.997 13.0123 14.4286 12.1838 14.4017C12.1226 14.4006 12.0614 14.4 12 14.4C11.9386 14.4 11.8774 14.4006 11.8162 14.4017C10.9877 14.4286 10.2964 14.997 10.0717 15.75Z" fill="currentColor"></path>
</svg>