<svg viewBox="0 0 24 24" fill="none" xmlns="http://www.w3.org/2000/svg">
<path fill-rule="evenodd" clip-rule="evenodd" d="M11.5704 2.14112C11.9911 1.94836 12.491 1.95334 12.9069 2.15444L21.3678 6.27551C21.7544 6.46384 21.9998 6.85623 21.9998 7.28629C21.9998 7.70017 21.7724 8.08058 21.4078 8.27656L12.953 12.8221C12.5136 13.0539 11.9695 13.0596 11.5242 12.837L2.63352 8.34948C2.24486 8.1533 1.99976 7.75503 1.99976 7.31967C1.99976 6.87062 2.26034 6.46238 2.66765 6.27333L11.5704 2.14112ZM12.2185 3.76655L4.43334 7.33316L12.2176 11.2236L19.593 7.33275L12.2185 3.76655Z" fill="currentColor"></path>
<path fill-rule="evenodd" clip-rule="evenodd" d="M3.19826 11.1081C2.64691 10.8343 2 11.2354 2 11.851C2 12.1597 2.17149 12.4429 2.44508 12.586L11.543 17.3435C12.0027 17.5752 12.5607 17.5693 13.0145 17.3278L21.5765 12.5877C21.8378 12.443 22 12.1679 22 11.8692C22 11.2522 21.3451 10.8555 20.7983 11.1413L12.257 15.6053L3.19826 11.1081Z" fill="currentColor"></path>
<path fill-rule="evenodd" clip-rule="evenodd" d="M3.19826 15.5949C2.64691 15.3212 2 15.7223 2 16.3378C2 16.6466 2.17149 16.9297 2.44508 17.0728L11.543 21.8303C12.0027 22.062 12.5607 22.0561 13.0145 21.8146L21.5765 17.0745C21.8378 16.9299 22 16.6547 22 16.356C22 15.739 21.3451 15.3423 20.7983 15.6281L12.257 20.0921L3.19826 15.5949Z" fill="currentColor"></path>
</svg>