<svg viewBox="0 0 24 24" fill="none" xmlns="http://www.w3.org/2000/svg">
<path fill-rule="evenodd" clip-rule="evenodd" d="M20.0127 13.4007L10.6161 3.99043L3.99867 4.00264L3.98727 10.1576L13.4134 20.0096L20.0127 13.4007ZM12.0212 2.58289C11.6477 2.20877 11.1407 1.99903 10.6125 2L3.995 2.01222C2.90033 2.01424 2.01343 2.90255 2.0114 3.99895L2 10.1539C1.99905 10.6684 2.19704 11.1633 2.55246 11.5348L11.9786 21.3867C12.7494 22.1924 14.0307 22.2061 14.8185 21.4171L21.4178 14.8082C22.194 14.0309 22.1941 12.7705 21.4178 11.9932L12.0212 2.58289Z" fill="currentColor"></path>
<path d="M8.96508 7.55452C8.96508 8.37898 8.29778 9.04734 7.47462 9.04734C6.65147 9.04734 5.98417 8.37898 5.98417 7.55452C5.98417 6.73005 6.65147 6.0617 7.47462 6.0617C8.29778 6.0617 8.96508 6.73005 8.96508 7.55452Z" fill="currentColor"></path>
</svg>