<svg viewBox="0 0 24 24" fill="none" xmlns="http://www.w3.org/2000/svg">
<path fill-rule="evenodd" clip-rule="evenodd" d="M12.9061 21.0492C12.9061 20.4981 12.4561 20.058 11.908 19.9899C7 19.9978 4 16.0465 4 11.9754C4 7.56702 7.58172 3.99332 12 3.99332C16.4183 3.99332 20 7.56702 20 11.9754C20 12.5066 20.4083 12.9732 20.9407 12.9732H21.0563C21.5639 12.9732 21.9941 12.5889 21.9994 12.0825C21.9998 12.0468 22 12.0111 22 11.9754C22 6.46492 17.5228 1.9978 12 1.9978C6.47715 1.9978 2 6.46492 2 11.9754C2 17.1496 6 21.9978 11.9075 21.9978C12.457 22.0522 12.9061 21.6002 12.9061 21.0492ZM13.0045 8.98211C13.0045 8.43107 12.5558 7.98436 12.0022 7.98436C11.4487 7.98436 11 8.43107 11 8.98211V11.9754C11 13.0775 11.8974 13.9709 13.0045 13.9709H15.009C15.5625 13.9709 16.0112 13.5242 16.0112 12.9732C16.0112 12.4221 15.5625 11.9754 15.009 11.9754H13.0045V8.98211ZM17.5 15.9978C17.5 15.4455 17.9477 14.9978 18.5 14.9978C19.0523 14.9978 19.5 15.4455 19.5 15.9978V17.4978H21C21.5523 17.4978 22 17.9455 22 18.4978C22 19.0501 21.5523 19.4978 21 19.4978H19.5V20.9978C19.5 21.5501 19.0523 21.9978 18.5 21.9978C17.9477 21.9978 17.5 21.5501 17.5 20.9978V19.4978H16C15.4477 19.4978 15 19.0501 15 18.4978C15 17.9455 15.4477 17.4978 16 17.4978H17.5V15.9978Z" fill="currentColor"></path>
</svg>