<svg viewBox="0 0 24 24" fill="none" xmlns="http://www.w3.org/2000/svg">
<path d="M12 8C12.5523 8 13 8.44772 13 9V12H15C15.5523 12 16 12.4477 16 13C16 13.5523 15.5523 14 15 14H12.5C11.6716 14 11 13.3284 11 12.5V9C11 8.44772 11.4477 8 12 8Z" fill="currentColor"></path>
<path fill-rule="evenodd" clip-rule="evenodd" d="M22 8.00001C22 8.55229 21.5523 9.00001 21 9.00001L17 9.00001C16.4477 9.00001 16 8.55229 16 8.00001C16 7.44772 16.4477 7.00001 17 7.00001L18.2454 7C16.7792 5.17107 14.5264 4 12 4C8.27232 4 5.14012 6.54955 4.25203 10C4.08762 10.639 4 11.3096 4 12C4 12.1162 4.00247 12.2318 4.00738 12.3468C4.08093 14.0715 4.70054 15.6548 5.69772 16.9282C6.10003 17.4419 6.56379 17.9053 7.07795 18.3071C8.43528 19.3678 10.1438 20 12 20C13.8537 20 15.5601 19.3696 16.9165 18.3114C17.4305 17.9104 17.8943 17.448 18.2968 16.9352C19.1701 15.8225 19.7548 14.4725 19.9383 12.998C20.0065 12.45 20.4477 12 21 12C21.5523 12 22.0052 12.449 21.9507 12.9986C21.4497 18.0526 17.1858 22 12 22C6.47715 22 2 17.5228 2 12C2 6.47715 6.47715 2 12 2C15.2712 2 18.1755 3.5707 20 5.99905V4.00001C20 3.44772 20.4477 3.00001 21 3.00001C21.5523 3.00001 22 3.44772 22 4.00001V8.00001Z" fill="currentColor"></path>
</svg>