<svg width="24" height="24" viewBox="0 0 24 24" fill="none" xmlns="http://www.w3.org/2000/svg">
<path fill-rule="evenodd" clip-rule="evenodd" d="M9.5 11C11.7091 11 13.5 9.20914 13.5 7C13.5 4.79086 11.7091 3 9.5 3C7.29086 3 5.5 4.79086 5.5 7C5.5 9.20914 7.29086 11 9.5 11ZM9.5 9C10.6046 9 11.5 8.10457 11.5 7C11.5 5.89543 10.6046 5 9.5 5C8.39543 5 7.5 5.89543 7.5 7C7.5 8.10457 8.39543 9 9.5 9Z" fill="currentColor"></path>
<path d="M16.5 11C18.1569 11 19.5 9.65685 19.5 8C19.5 6.34315 18.1569 5 16.5 5C15.9477 5 15.5 5.44772 15.5 6C15.5 6.55228 15.9477 7 16.5 7C17.0523 7 17.5 7.44772 17.5 8C17.5 8.55228 17.0523 9 16.5 9C15.9477 9 15.5 9.44772 15.5 10C15.5 10.5523 15.9477 11 16.5 11Z" fill="currentColor"></path>
<path fill-rule="evenodd" clip-rule="evenodd" d="M3 18C3 14.6863 5.68629 12 9 12H10C13.3137 12 16 14.6863 16 18V20C16 20.5523 15.5523 21 15 21H4C3.44772 21 3 20.5523 3 20V18ZM5 18V19H14V18C14 15.7909 12.2091 14 10 14H9C6.79086 14 5 15.7909 5 18Z" fill="currentColor"></path>
<path d="M17 14C17 13.4477 17.4477 13 18 13C20.7614 13 23 15.2386 23 18V20C23 20.5523 22.5523 21 22 21H18C17.4477 21 17 20.5523 17 20C17 19.4477 17.4477 19 18 19H21V18C21 16.3431 19.6569 15 18 15C17.4477 15 17 14.5523 17 14Z" fill="currentColor"></path>
</svg>