<svg viewBox="0 0 24 24" fill="none" xmlns="http://www.w3.org/2000/svg">
<path fill-rule="evenodd" clip-rule="evenodd" d="M12.0768 6.00014C7.17499 5.97335 4.8563 9.98821 4.11284 11.6472C4.08011 11.7202 4.0577 11.7703 4.0395 11.8136C4.02851 11.8397 4.02139 11.8579 4.01677 11.8704C4.02175 11.8835 4.02949 11.9025 4.04159 11.9302C4.06075 11.9741 4.08426 12.0248 4.11838 12.0983C4.50036 12.921 5.3203 14.437 6.63843 15.7275C7.94477 17.0064 9.69667 18.0261 11.9946 17.9995L12.0063 17.9994C14.3997 17.9993 16.1783 16.9333 17.4747 15.6332C18.7842 14.3198 19.5642 12.7998 19.9057 12.025C19.9334 11.9622 19.952 11.9201 19.967 11.8838C19.9755 11.8635 19.981 11.8493 19.9847 11.8395C19.982 11.8305 19.978 11.8179 19.9721 11.8005C19.9601 11.765 19.9452 11.7236 19.9225 11.6609C19.3667 10.1259 17.3925 6.02755 12.0768 6.00014ZM12.0876 4.00017C5.87936 3.96641 3.06737 9.06374 2.27423 10.8335C2.26732 10.849 2.26021 10.8647 2.25296 10.8807C2.14196 11.1264 1.99712 11.447 2.00004 11.884C2.00297 12.3211 2.15329 12.6422 2.26838 12.8881C2.27604 12.9044 2.28354 12.9205 2.29084 12.9362C2.72425 13.8697 3.66637 15.6253 5.22586 17.1521C6.79611 18.6895 9.03549 20.0321 12.0122 19.9994C15.0765 19.9976 17.3398 18.6101 18.9044 17.0408C20.4569 15.4837 21.3572 13.7171 21.7493 12.8275C21.7549 12.8147 21.7607 12.8017 21.7666 12.7885C21.8621 12.5731 21.9857 12.2946 21.9989 11.9074C22.012 11.5206 21.9095 11.2396 21.8299 11.0213C21.8253 11.0085 21.8207 10.996 21.8163 10.9837C21.188 9.24874 18.7402 4.03464 12.0876 4.00017Z" fill="currentColor"></path>
<path d="M12 9C13.6569 9 15 10.3431 15 12C15 13.6569 13.6569 15 12 15C10.3431 15 9 13.6569 9 12C9 10.3431 10.3431 9 12 9Z" fill="currentColor"></path>
</svg>