<svg viewBox="0 0 24 24" fill="none" xmlns="http://www.w3.org/2000/svg">
<path fill-rule="evenodd" clip-rule="evenodd" d="M18 17.4495H13C11.3433 17.4495 10.0002 16.1063 10 14.4495C10 12.7927 11.3431 11.4495 13 11.4495H18V17.4495ZM13 13.4495C12.4477 13.4495 12 13.8973 12 14.4495C12.0002 15.0017 12.4478 15.4495 13 15.4495H16V13.4495H13Z" fill="currentColor"></path>
<path fill-rule="evenodd" clip-rule="evenodd" d="M17.5254 2.05892C18.7859 1.74863 20.0039 2.70314 20.0039 4.0013V5.44954H20.0518C21.1324 5.47699 22 6.36227 22 7.44954V19.4495C21.9998 20.5367 21.1323 21.4211 20.0518 21.4486L20 21.4495H4C2.89554 21.4495 2.00017 20.554 2 19.4495V7.44954C2 6.50795 2.65109 5.71967 3.52734 5.50716V5.50521L17.5254 2.05892ZM4 19.4495H20V7.44954H4V19.4495ZM12.123 5.44856H18.0039V4.0013L12.123 5.44856Z" fill="currentColor"></path>
</svg>