<svg viewBox="0 0 24 24" fill="none" xmlns="http://www.w3.org/2000/svg">
<path fill-rule="evenodd" clip-rule="evenodd" d="M6 4L6 5H4C2.89543 5 2 5.89543 2 7V17C2 18.1046 2.89543 19 4 19H6V20C6 21.1046 6.89543 22 8 22H20C21.1046 22 22 21.1046 22 20V7.82843C22 7.29799 21.7893 6.78929 21.4142 6.41421L17.5858 2.58579C17.2107 2.21071 16.702 2 16.1716 2H8C6.89543 2 6 2.89543 6 4ZM20 20V7.82843L16.1716 4H8V5H14C15.1046 5 16 5.89543 16 7V17C16 18.1046 15.1046 19 14 19H8V20H20ZM14 7H4L4 17H14L14 7ZM4.63635 9.18188L6.35226 15.0001H7.86363L8.85226 11.7501H8.89772L9.88635 15.0001H11.3977L13.1136 9.18188H11.3523L10.5568 12.7728H10.5114L9.56817 9.18188H8.18181L7.23863 12.7614H7.19317L6.39772 9.18188H4.63635Z" fill="currentColor"></path>
</svg>