<svg width="224" height="202" viewBox="0 0 224 202" fill="none" xmlns="http://www.w3.org/2000/svg">
<rect x="111.174" y="117.396" width="32.6842" height="6" rx="3" transform="rotate(-30 111.174 117.396)" fill="#3067DB"></rect>
<circle cx="116.639" cy="105.5" r="5.5" fill="#E3E2E2"></circle>
<path d="M34.1225 65.8896L127.853 40.7746C129.454 40.3458 131.099 41.2956 131.527 42.8959L149.322 109.307C149.751 110.907 148.801 112.552 147.201 112.981L53.4703 138.096C51.8699 138.525 50.2248 137.575 49.796 135.975L32.0012 69.5639C31.5724 67.9635 32.5221 66.3185 34.1225 65.8896Z" fill="white" stroke="#1D1F27" stroke-width="2"></path>
<circle cx="90.4881" cy="89.4851" r="19.8397" transform="rotate(-15 90.4881 89.4851)" stroke="#1D1F27" stroke-width="2"></circle>
<mask id="mask0_12891_341" style="mask-type:alpha" maskUnits="userSpaceOnUse" x="31" y="40" width="120" height="99">
<path d="M35.6054 65.4923L126.37 41.1719C128.79 40.5239 131.276 41.9596 131.925 44.3787L148.925 107.824C149.573 110.244 148.137 112.73 145.718 113.379L54.9531 137.699C52.5337 138.347 50.047 136.912 49.3987 134.492L32.3985 71.0467C31.7505 68.6274 33.1861 66.1407 35.6054 65.4923Z" fill="#D9D9D9" stroke="#1D1F27" stroke-width="2"></path>
</mask>
<g mask="url(#mask0_12891_341)">
<path d="M71.7452 133.131L70.2278 127.468C67.854 118.609 58.7481 113.352 49.8891 115.726L46.4683 116.642L45.689 116.851L35.6844 119.532L43.4011 148.331L73.6464 140.227L71.7452 133.131Z" fill="#39BFAC"></path>
<path d="M52.2671 60.3777L53.7846 66.041C56.1583 74.8999 50.901 84.0058 42.042 86.3796L38.6212 87.2962L37.8419 87.505L27.8373 90.1857L20.1206 61.3866L50.3659 53.2824L52.2671 60.3777Z" fill="#39BFAC"></path>
<path d="M74.8714 140.934L71.1939 127.209C68.6771 117.817 59.0227 112.243 49.6305 114.759L34.4596 118.824L42.694 149.556L74.8714 140.934Z" fill="#39BFAC" stroke="white" stroke-width="2"></path>
<path d="M51.0733 52.0576L54.7508 65.7824C57.2673 75.1747 51.6934 84.829 42.3012 87.3458L27.1303 91.4108L18.8959 60.6795L51.0733 52.0576Z" fill="#39BFAC" stroke="white" stroke-width="2"></path>
<path d="M139.214 91.79L143.414 90.6645L156.325 87.205L164.042 116.004L130.89 124.887L128.989 117.792L127.471 112.129C125.098 103.27 130.355 94.1637 139.214 91.79Z" fill="#39BFAC"></path>
<path d="M130.183 126.112L126.506 112.387C123.989 102.995 129.563 93.3403 138.955 90.8237L157.032 85.9799L165.267 116.711L130.183 126.112Z" stroke="white" stroke-width="2"></path>
<path d="M131.359 62.4429L135.559 61.3175L148.47 57.858L140.754 29.0588L107.602 37.9419L109.503 45.0372L111.02 50.7004C113.394 59.5594 122.5 64.8167 131.359 62.4429Z" fill="#39BFAC"></path>
<path d="M106.377 37.2347L110.055 50.9596C112.571 60.3518 122.226 65.9259 131.618 63.4092L149.695 58.5654L141.461 27.8341L106.377 37.2347Z" stroke="white" stroke-width="2"></path>
</g>
<path d="M34.1225 65.8896L127.853 40.7746C129.454 40.3458 131.099 41.2956 131.527 42.8959L149.322 109.307C149.751 110.907 148.801 112.552 147.201 112.981L53.4703 138.096C51.8699 138.525 50.2248 137.575 49.796 135.975L32.0012 69.5639C31.5724 67.9635 32.5221 66.3185 34.1225 65.8896Z" stroke="#1D1F27" stroke-width="2"></path>
<rect x="78" y="76" width="102" height="76" rx="4" fill="#3067DB" stroke="#1D1F27" stroke-width="1.80413"></rect>
<rect x="143.259" y="128.506" width="28.2734" height="3.02929" rx="1.51465" fill="white"></rect>
<rect x="139.342" y="136.508" width="32.1923" height="6.05858" rx="3.02929" fill="white"></rect>
<path d="M147.876 49.6855C148.091 49.1065 148.909 49.1065 149.124 49.6855C149.842 51.627 151.373 53.1579 153.315 53.8763C153.894 54.0906 153.894 54.9094 153.315 55.1237C151.373 55.8421 149.842 57.373 149.124 59.3145C148.909 59.8935 148.091 59.8935 147.876 59.3145C147.158 57.373 145.627 55.8421 143.685 55.1237C143.106 54.9094 143.106 54.0906 143.685 53.8763C145.627 53.1579 147.158 51.627 147.876 49.6855Z" fill="#EFC056" stroke="#1D1F27" stroke-width="2"></path>
<path d="M60.8763 144.685C61.0906 144.106 61.9094 144.106 62.1237 144.685C62.8421 146.627 64.373 148.158 66.3145 148.876C66.8935 149.091 66.8935 149.909 66.3145 150.124C64.373 150.842 62.8421 152.373 62.1237 154.315C61.9094 154.894 61.0906 154.894 60.8763 154.315C60.1579 152.373 58.627 150.842 56.6855 150.124C56.1065 149.909 56.1065 149.091 56.6855 148.876C58.627 148.158 60.1579 146.627 60.8763 144.685Z" fill="#EFC056" stroke="#1D1F27" stroke-width="2"></path>
<path d="M60.9446 32.8523C61.3071 31.8725 62.6929 31.8725 63.0554 32.8523C64.2713 36.1381 66.8619 38.7287 70.1477 39.9446C71.1275 40.3071 71.1275 41.6929 70.1477 42.0554C66.8619 43.2713 64.2713 45.8619 63.0554 49.1477C62.6929 50.1275 61.3071 50.1275 60.9446 49.1477C59.7287 45.8619 57.1381 43.2713 53.8523 42.0554C52.8725 41.6929 52.8725 40.3071 53.8523 39.9446C57.1381 38.7287 59.7287 36.1381 60.9446 32.8523Z" fill="#EFC056" stroke="#1D1F27" stroke-width="2"></path>
<path d="M105.467 107H90.5333C90.2388 107 90 107.239 90 107.533V122.467C90 122.761 90.2388 123 90.5333 123H105.467C105.761 123 106 122.761 106 122.467V107.533C106 107.239 105.761 107 105.467 107Z" fill="#E3E2E2" stroke="#1D1F27" stroke-width="2" stroke-miterlimit="10"></path>
<path d="M95.7405 123V114.502V107V113C95.7405 114.105 96.6359 115 97.7405 115H105.998" fill="#E3E2E2"></path>
<path d="M95.7405 123V114.502V107V113C95.7405 114.105 96.6359 115 97.7405 115H105.998" stroke="#1D1F27" stroke-width="2" stroke-miterlimit="10"></path>
<rect x="87" y="85" width="33" height="6" rx="3" fill="white"></rect>
</svg>