<svg width="224" height="202" viewBox="0 0 224 202" fill="none" xmlns="http://www.w3.org/2000/svg">
<mask id="path-1-outside-1_12891_308" maskUnits="userSpaceOnUse" x="127" y="129" width="66" height="40" fill="black">
<rect fill="white" x="127" y="129" width="66" height="40"></rect>
<path fill-rule="evenodd" clip-rule="evenodd" d="M177.323 166.999C177.369 166.999 177.414 166.999 177.459 166.999C184.647 166.999 190.474 161.172 190.474 153.984C190.474 146.796 184.647 140.969 177.459 140.969C176.341 140.969 175.256 141.11 174.221 141.375C172.543 138.484 169.414 136.54 165.831 136.54C164.823 136.54 163.85 136.694 162.936 136.98C160.62 133.382 156.581 131 151.984 131C144.796 131 138.969 136.827 138.969 144.015C138.969 144.836 139.045 145.64 139.191 146.419C133.558 146.449 129 151.216 129 157.092V166.978H138.969V166.999H177.323Z"></path>
</mask>
<path fill-rule="evenodd" clip-rule="evenodd" d="M177.323 166.999C177.369 166.999 177.414 166.999 177.459 166.999C184.647 166.999 190.474 161.172 190.474 153.984C190.474 146.796 184.647 140.969 177.459 140.969C176.341 140.969 175.256 141.11 174.221 141.375C172.543 138.484 169.414 136.54 165.831 136.54C164.823 136.54 163.85 136.694 162.936 136.98C160.62 133.382 156.581 131 151.984 131C144.796 131 138.969 136.827 138.969 144.015C138.969 144.836 139.045 145.64 139.191 146.419C133.558 146.449 129 151.216 129 157.092V166.978H138.969V166.999H177.323Z" fill="white"></path>
<path d="M177.323 166.999L177.344 164.999L177.334 164.999H177.323V166.999ZM174.221 141.375L172.491 142.379L173.25 143.688L174.717 143.313L174.221 141.375ZM162.936 136.98L161.254 138.062L162.079 139.343L163.533 138.889L162.936 136.98ZM139.191 146.419L139.201 148.419L141.596 148.406L141.157 146.052L139.191 146.419ZM129 166.978H127V168.978H129V166.978ZM138.969 166.978H140.969V164.978H138.969V166.978ZM138.969 166.999H136.969V168.999H138.969V166.999ZM177.303 168.999C177.355 168.999 177.407 168.999 177.459 168.999V164.999C177.421 164.999 177.382 164.999 177.344 164.999L177.303 168.999ZM177.459 168.999C185.752 168.999 192.474 162.277 192.474 153.984H188.474C188.474 160.068 183.543 164.999 177.459 164.999V168.999ZM192.474 153.984C192.474 145.692 185.752 138.969 177.459 138.969V142.969C183.543 142.969 188.474 147.901 188.474 153.984H192.474ZM177.459 138.969C176.172 138.969 174.921 139.131 173.724 139.438L174.717 143.313C175.591 143.089 176.51 142.969 177.459 142.969V138.969ZM175.951 140.372C173.93 136.889 170.156 134.54 165.831 134.54V138.54C168.672 138.54 171.156 140.079 172.491 142.379L175.951 140.372ZM165.831 134.54C164.618 134.54 163.444 134.725 162.339 135.071L163.533 138.889C164.256 138.662 165.027 138.54 165.831 138.54V134.54ZM164.618 135.897C161.949 131.752 157.289 129 151.984 129V133C155.872 133 159.291 135.013 161.254 138.062L164.618 135.897ZM151.984 129C143.692 129 136.969 135.723 136.969 144.015H140.969C140.969 137.932 145.901 133 151.984 133V129ZM136.969 144.015C136.969 144.96 137.057 145.887 137.225 146.786L141.157 146.052C141.034 145.393 140.969 144.713 140.969 144.015H136.969ZM139.18 144.419C132.371 144.455 127 150.193 127 157.092H131C131 152.239 134.744 148.443 139.201 148.419L139.18 144.419ZM127 157.092V166.978H131V157.092H127ZM129 168.978H138.969V164.978H129V168.978ZM140.969 166.999V166.978H136.969V166.999H140.969ZM177.323 164.999H138.969V168.999H177.323V164.999Z" fill="#1D1F27" mask="url(#path-1-outside-1_12891_308)"></path>
<mask id="path-3-outside-2_12891_308" maskUnits="userSpaceOnUse" x="32" y="46" width="59" height="37" fill="black">
<rect fill="white" x="32" y="46" width="59" height="37"></rect>
<path fill-rule="evenodd" clip-rule="evenodd" d="M45.7786 80.2066C45.734 80.2071 45.6893 80.2074 45.6446 80.2074C39.2138 80.2074 34.0007 74.9942 34.0007 68.5635C34.0007 62.1328 39.2138 56.9196 45.6446 56.9196C46.6453 56.9196 47.6165 57.0459 48.5432 57.2833C50.0437 54.6962 52.8433 52.9562 56.0493 52.9562C56.9511 52.9562 57.8207 53.0939 58.6383 53.3493C60.71 50.1313 64.324 48 68.4358 48C74.8665 48 80.0796 53.2131 80.0796 59.6439C80.0796 60.3788 80.0116 61.0978 79.8814 61.7949C84.9217 61.8205 89 66.0858 89 71.3436V80.1875H80.0796V80.2066H45.7786Z"></path>
</mask>
<path fill-rule="evenodd" clip-rule="evenodd" d="M45.7786 80.2066C45.734 80.2071 45.6893 80.2074 45.6446 80.2074C39.2138 80.2074 34.0007 74.9942 34.0007 68.5635C34.0007 62.1328 39.2138 56.9196 45.6446 56.9196C46.6453 56.9196 47.6165 57.0459 48.5432 57.2833C50.0437 54.6962 52.8433 52.9562 56.0493 52.9562C56.9511 52.9562 57.8207 53.0939 58.6383 53.3493C60.71 50.1313 64.324 48 68.4358 48C74.8665 48 80.0796 53.2131 80.0796 59.6439C80.0796 60.3788 80.0116 61.0978 79.8814 61.7949C84.9217 61.8205 89 66.0858 89 71.3436V80.1875H80.0796V80.2066H45.7786Z" fill="white"></path>
<path d="M45.7786 80.2066L45.756 78.2067L45.7673 78.2066H45.7786V80.2066ZM48.5432 57.2833L50.2733 58.2867L49.5137 59.5965L48.0468 59.2207L48.5432 57.2833ZM58.6383 53.3493L60.3199 54.432L59.4955 55.7125L58.0418 55.2583L58.6383 53.3493ZM79.8814 61.7949L79.8712 63.7949L77.4755 63.7827L77.9154 61.4277L79.8814 61.7949ZM89 80.1875H91V82.1875H89V80.1875ZM80.0796 80.1875H78.0796V78.1875H80.0796V80.1875ZM80.0796 80.2066H82.0796V82.2066H80.0796V80.2066ZM45.8012 82.2065C45.749 82.2071 45.6968 82.2074 45.6446 82.2074V78.2074C45.6818 78.2074 45.7189 78.2072 45.756 78.2067L45.8012 82.2065ZM45.6446 82.2074C38.1093 82.2074 32.0007 76.0988 32.0007 68.5635H36.0007C36.0007 73.8897 40.3184 78.2074 45.6446 78.2074V82.2074ZM32.0007 68.5635C32.0007 61.0282 38.1093 54.9196 45.6446 54.9196V58.9196C40.3184 58.9196 36.0007 63.2373 36.0007 68.5635H32.0007ZM45.6446 54.9196C46.8141 54.9196 47.9521 55.0673 49.0396 55.3459L48.0468 59.2207C47.281 59.0245 46.4765 58.9196 45.6446 58.9196V54.9196ZM46.8132 56.2799C48.6567 53.1013 52.1013 50.9562 56.0493 50.9562V54.9562C53.5853 54.9562 51.4307 56.2911 50.2733 58.2867L46.8132 56.2799ZM56.0493 50.9562C57.1557 50.9562 58.2263 51.1253 59.2347 51.4403L58.0418 55.2583C57.4151 55.0625 56.7465 54.9562 56.0493 54.9562V50.9562ZM56.9566 52.2667C59.3809 48.501 63.6157 46 68.4358 46V50C65.0324 50 62.0391 51.7615 60.3199 54.432L56.9566 52.2667ZM68.4358 46C75.9711 46 82.0796 52.1086 82.0796 59.6439H78.0796C78.0796 54.3177 73.7619 50 68.4358 50V46ZM82.0796 59.6439C82.0796 60.5026 82.0001 61.3445 81.8474 62.1621L77.9154 61.4277C78.0231 60.8511 78.0796 60.255 78.0796 59.6439H82.0796ZM79.8915 59.7949C86.108 59.8265 91 65.0623 91 71.3436H87C87 67.1093 83.7353 63.8145 79.8712 63.7949L79.8915 59.7949ZM91 71.3436V80.1875H87V71.3436H91ZM89 82.1875H80.0796V78.1875H89V82.1875ZM78.0796 80.2066V80.1875H82.0796V80.2066H78.0796ZM45.7786 78.2066H80.0796V82.2066H45.7786V78.2066Z" fill="#1D1F27" mask="url(#path-3-outside-2_12891_308)"></path>
<path d="M109.428 152.311L109.428 165.513" stroke="#1D1F27" stroke-width="1.72621" stroke-linecap="round"></path>
<path d="M98.5254 156.798L98.5254 170" stroke="#1D1F27" stroke-width="1.72621" stroke-linecap="round"></path>
<path d="M120.33 158.89L120.33 168.391" stroke="#1D1F27" stroke-width="1.72621" stroke-linecap="round"></path>
<path d="M89.8955 134.139H128.735L126.452 140.989C125.754 143.083 123.794 144.496 121.586 144.496H97.0442C94.8368 144.496 92.8771 143.083 92.179 140.989L89.8955 134.139Z" fill="#EFC056" stroke="#1D1F27" stroke-width="1.72621"></path>
<path d="M75.4746 103.936L90.3254 89.0573L88.4565 97.2254C88.4213 97.3791 88.4036 97.5362 88.4036 97.6938V132.288C88.4036 132.933 88.1071 133.542 87.5994 133.94L71.7138 146.396C70.3357 147.476 68.3183 146.494 68.3183 144.743V121.235C68.3183 114.749 70.892 108.527 75.4746 103.936Z" fill="#3067DB" stroke="#1D1F27" stroke-width="1.72621"></path>
<path d="M143.587 104.136L128.736 89.2573L130.605 97.4254C130.64 97.579 130.658 97.7361 130.658 97.8937V132.487C130.658 133.133 130.955 133.742 131.462 134.14L147.348 146.596C148.726 147.676 150.743 146.694 150.743 144.943V121.435C150.743 114.949 148.17 108.727 143.587 104.136Z" fill="#3067DB" stroke="#1D1F27" stroke-width="1.72621"></path>
<path d="M132.574 136.131H86.4184C85.0023 136.131 83.8542 134.983 83.8542 133.567V81.8747V80.7303C83.8542 62.8438 91.7681 45.8738 105.471 34.3773C107.799 32.424 111.193 32.424 113.521 34.3773C127.224 45.8738 135.138 62.8438 135.138 80.7303V81.8747V133.567C135.138 134.983 133.99 136.131 132.574 136.131Z" fill="#C7E5FF" stroke="#1D1F27" stroke-width="1.72621" stroke-linecap="round"></path>
<mask id="mask0_12891_308" style="mask-type:alpha" maskUnits="userSpaceOnUse" x="82" y="32" width="55" height="106">
<path d="M132.573 136.559H86.4179C85.0018 136.559 83.8538 135.411 83.8538 133.995V82.3027V81.1583C83.8538 63.2718 91.7676 46.3017 105.47 34.8053C107.798 32.852 111.193 32.852 113.521 34.8053C127.223 46.3017 135.137 63.2718 135.137 81.1583V82.3027V133.995C135.137 135.411 133.989 136.559 132.573 136.559Z" fill="white" stroke="#000021" stroke-width="1.72621" stroke-linecap="round"></path>
</mask>
<g mask="url(#mask0_12891_308)">
<rect x="68.3176" y="19.3443" width="71.6376" height="39.7028" fill="white"></rect>
</g>
<path d="M132.574 136.131H86.4184C85.0023 136.131 83.8542 134.983 83.8542 133.567V81.8747V80.7303C83.8542 62.8438 91.7681 45.8738 105.471 34.3773C107.799 32.424 111.193 32.424 113.521 34.3773C127.224 45.8738 135.138 62.8438 135.138 80.7303V81.8747V133.567C135.138 134.983 133.99 136.131 132.574 136.131Z" stroke="#1D1F27" stroke-width="1.72621" stroke-linecap="round"></path>
<circle cx="109.301" cy="84.4961" r="13.5" fill="white" stroke="#1D1F27" stroke-width="2"></circle>
</svg>