<svg width="224" height="202" viewBox="0 0 224 202" fill="none" xmlns="http://www.w3.org/2000/svg">
<path d="M61.0352 99C65.3418 99.0001 68.8096 102.536 68.8096 106.869C68.8096 106.995 68.8056 107.12 68.7998 107.245C71.7906 107.807 73.9999 110.555 74 113.771V120H47.7744C43.4677 120 40 116.464 40 112.131C40 107.798 43.4677 104.262 47.7744 104.262C48.1912 104.262 48.6011 104.294 49.001 104.358C50.1012 102.884 51.8508 101.923 53.8281 101.923C54.1982 101.923 54.5614 101.958 54.9141 102.022C56.334 100.188 58.5442 99 61.0352 99Z" fill="white" stroke="#1D1F27" stroke-width="2"></path>
<path d="M145.191 48C149.307 48.0001 152.962 49.958 155.227 52.9805C155.911 52.8275 156.623 52.7471 157.353 52.7471C160.594 52.7471 163.464 54.3349 165.183 56.7676C165.955 56.6208 166.753 56.5449 167.567 56.5449C174.41 56.5449 180 61.9638 180 68.7002C180 75.4361 174.411 80.8554 167.569 80.8564L133.759 80.8574H132.759V80.8398H124V71.3662C124 66.1824 127.837 61.8863 132.812 61.29C132.776 60.9166 132.759 60.5383 132.759 60.1562C132.759 53.4197 138.348 48 145.191 48Z" fill="white" stroke="#1D1F27" stroke-width="2"></path>
<rect x="117.51" y="114.071" width="8" height="22" transform="rotate(-45 117.51 114.071)" fill="white" stroke="#1D1F27" stroke-width="2"></rect>
<rect x="124.405" y="123.591" width="12" height="44" rx="6" transform="rotate(-45 124.405 123.591)" fill="#3067DB" stroke="#1D1F27" stroke-width="2"></rect>
<circle cx="94" cy="84" r="39" fill="#C7E5FF" stroke="#1D1F27" stroke-width="2"></circle>
<path d="M123 84C123 67.9837 110.016 55 94 55" stroke="white" stroke-width="4" stroke-linecap="round"></path>
<path d="M75.0527 107C71.3899 107 68.1284 108.704 66.0898 111.348C65.4939 111.221 64.8757 111.153 64.2422 111.153C61.3567 111.153 58.7928 112.533 57.2373 114.662C56.5642 114.54 55.8704 114.477 55.1621 114.477C49.0357 114.477 44 119.257 44 125.238C44.0002 131.218 49.0348 135.999 55.1602 136H94V127.57L93.9883 127.108C93.7677 122.744 90.4415 119.2 86.1758 118.644C86.2003 118.353 86.2148 118.059 86.2148 117.762C86.2148 111.781 81.179 107 75.0527 107Z" fill="white" stroke="#1D1F27" stroke-width="2"></path>
</svg>